<svg width="165" height="99" viewBox="0 0 165 99" fill="none" xmlns="http://www.w3.org/2000/svg">
<path d="M37.4869 78.7729C37.6018 76.5668 37.3594 74.608 36.7596 72.8966C36.2265 71.1825 35.4653 69.6107 34.476 68.1811C33.5534 66.749 32.4323 65.3579 31.1126 64.0078C29.8594 62.6551 28.5371 61.2384 27.1457 59.7576C25.8082 59.6758 24.6372 59.5876 23.6328 59.4929C22.6259 59.3317 21.583 59.1051 20.5043 58.8131C19.3952 61.191 18.0965 63.8431 16.6083 66.7693C15.1201 69.6956 13.7305 72.5847 12.4395 75.4366C11.1486 78.2885 10.0831 80.9316 9.243 83.3658C8.33889 85.8692 7.91384 87.8204 7.96785 89.2193C7.74252 90.2955 7.36339 90.8439 6.83046 90.8644C6.30009 90.9516 5.8222 90.6698 5.39678 90.0191C4.90732 89.4376 4.57411 88.5831 4.39716 87.4558C4.15616 86.3976 4.21237 85.2613 4.56578 84.0467C4.85001 82.7681 5.44932 81.0104 6.36371 78.7734C7.21405 76.6057 8.22323 74.2317 9.39123 71.6514C10.5618 69.1377 11.7977 66.5881 13.0989 64.0026C14.4002 61.4172 15.5785 59.1033 16.6338 57.0611C15.9471 56.5539 15.5229 55.9365 15.3614 55.2088C15.2665 54.4786 15.342 53.8419 15.5879 53.2987C15.9004 52.7529 16.3526 52.3685 16.9444 52.1455C17.6003 51.8533 18.4036 51.9224 19.3542 52.3527C21.7288 48.1913 24.2712 44.0568 26.9814 39.9492C29.6891 35.775 32.3789 32.0018 35.0508 28.6295C37.7201 25.1907 40.2781 22.3232 42.7247 20.0271C45.2353 17.6618 47.4463 16.1754 49.3576 15.5679C51.9428 15.1346 53.8632 15.6275 55.1189 17.0468C56.372 18.3995 56.6811 20.3557 56.046 22.9154C55.6952 24.1966 55.1612 25.9184 54.4441 28.081C53.791 30.1745 53.0188 32.6394 52.1276 35.4759C51.2338 38.2458 50.2836 41.2847 49.2771 44.5926C48.3373 47.898 47.4705 51.3674 46.6767 55.0007C48.5957 54.593 50.5083 54.0188 52.4145 53.2781C54.3207 52.5373 56.1244 51.7338 57.8256 50.8676C59.5242 49.9347 61.0562 49.0082 62.4218 48.0882C63.8513 47.099 64.9837 46.188 65.8189 45.3551C66.8976 45.6471 67.0591 46.3747 66.3034 47.5381C65.6118 48.6322 64.2591 49.8853 62.2454 51.2974C60.2984 52.7069 57.8837 54.1011 55.0014 55.4799C52.1165 56.7922 49.0843 57.7432 45.9047 58.333C45.0008 62.571 44.2994 66.8679 43.8003 71.2237C43.3039 75.6462 43.1739 80.0545 43.4102 84.4486C43.1414 86.1269 42.6726 86.9456 42.0039 86.9047C41.3352 86.8638 40.6484 86.3566 39.9437 85.383C39.3081 84.4735 38.7315 83.3616 38.2137 82.0473C37.6959 80.7329 37.4537 79.6415 37.4869 78.7729ZM41.4999 55.7009C42.2527 52.7363 43.1337 49.6334 44.1427 46.392C45.2158 43.0815 46.2915 39.8376 47.3697 36.6603C48.448 33.483 49.5301 30.4057 50.616 27.4282C51.6994 24.3842 52.6599 21.6117 53.4973 19.1109C53.7304 18.2346 53.5484 17.8413 52.9514 17.9311C52.3519 17.9542 51.6281 18.2157 50.7801 18.7154C48.3564 19.8764 45.7983 21.8766 43.1058 24.7159C40.4108 27.4886 37.7952 30.5918 35.2591 34.0255C32.723 37.4592 30.356 40.9531 28.1581 44.5072C26.0243 47.9921 24.2748 51.0619 22.9095 53.7165C23.3861 53.965 23.9293 54.2109 24.5391 54.4542C25.149 54.6976 25.6602 54.978 26.0727 55.2957C27.751 55.5645 29.7598 55.7538 32.0991 55.8637C34.5025 55.9043 37.6361 55.8501 41.4999 55.7009ZM40.5395 59.3407C38.0107 59.505 35.9455 59.5847 34.3442 59.5798C32.8094 59.5724 31.6756 59.5828 30.9428 59.6111C32.6111 61.348 33.9449 63.0645 34.9444 64.7605C36.0106 66.454 37.2125 68.2089 38.5502 70.0254C38.7063 68.8851 38.8612 67.7116 39.0148 66.5048C39.2349 65.2954 39.4871 64.0514 39.7714 62.7729L40.5395 59.3407ZM65.9163 54.258C66.7339 56.4281 67.2301 58.9108 67.4047 61.7061C67.5793 64.5015 67.4888 67.3404 67.133 70.2229C66.8465 73.1695 66.3908 76.0559 65.766 78.8821C65.1438 81.7749 64.4447 84.4039 63.6687 86.7689C62.7057 89.4747 61.9168 91.5067 61.3021 92.8647C60.6873 94.2228 59.9534 95.0851 59.1002 95.4516C57.194 96.1923 55.9936 96.2053 55.499 95.4905C55.007 94.8423 54.5982 93.7573 54.2726 92.2354C53.565 89.4606 53.3429 86.3002 53.6063 82.754C53.8697 79.2079 54.4918 75.4478 55.4726 71.4737C56.3867 67.5021 57.5622 63.387 58.999 59.1284C60.4358 54.8699 62.0404 50.6381 63.8129 46.4333C65.5853 42.2285 67.4295 38.1543 69.3455 34.2108C71.2589 30.2007 73.1493 26.4583 75.0167 22.9837C76.8814 19.4424 78.4978 16.3778 79.8656 13.7898C81.2975 11.1326 82.5834 9.01472 83.7234 7.43624C84.93 5.85519 86.0546 4.74431 87.0974 4.10361C88.1401 3.46291 89.2687 3.31927 90.4833 3.67268C91.6312 4.02867 92.4614 4.79721 92.974 5.97832C93.5533 7.15685 93.4933 9.06058 92.7942 11.6895C91.9184 14.9257 90.452 18.4182 88.3951 22.167C86.4022 25.8466 84.2056 29.434 81.8054 32.9292C79.4051 36.4244 76.9958 39.6864 74.5775 42.7153C72.1566 45.6776 70.1136 48.0581 68.4484 49.857C69.8679 50.336 71.5718 50.4036 73.56 50.06C75.6149 49.7138 77.63 49.2024 79.6053 48.5257C81.5781 47.7824 83.3498 47.0134 84.9203 46.2189C86.4883 45.3578 87.4644 44.7197 87.8486 44.3046C88.2381 44.0227 88.6685 43.9393 89.14 44.0546C89.6089 44.1032 89.819 44.3619 89.7704 44.8308C89.7192 45.2331 89.244 45.8852 88.3448 46.7873C87.5096 47.6201 85.9135 48.6157 83.5564 49.7742C79.3061 52.0065 75.691 53.4136 72.7112 53.9957C69.7981 54.5752 67.5331 54.6626 65.9163 54.258ZM87.3323 7.59715C86.5689 8.56065 85.6544 9.93028 84.5888 11.706C83.5872 13.4126 82.4959 15.3895 81.3151 17.6367C80.2008 19.8814 79.0251 22.2618 77.7879 24.7781C76.6174 27.2918 75.4468 29.8055 74.2762 32.3192C73.1723 34.8303 72.099 37.2735 71.0566 39.6488C70.0781 41.955 69.2572 44.0215 68.5939 45.8484C70.1719 43.5192 71.9433 41.0156 73.9081 38.3379C75.937 35.5909 77.8993 32.8465 79.7949 30.1047C81.688 27.2962 83.4504 24.5595 85.0821 21.8946C86.7139 19.2297 87.987 16.7787 88.9013 14.5418C88.9603 14.3394 89.0985 13.6002 89.3161 12.3241C89.6003 11.0456 89.7539 9.83874 89.7768 8.70368C89.8637 7.49943 89.7317 6.67057 89.3806 6.21711C89.0961 5.76108 88.4134 6.22109 87.3323 7.59715ZM63.6261 57.1485C63.6261 57.1485 63.3853 57.8249 62.9038 59.1779C62.4889 60.5282 61.9895 62.2821 61.4057 64.4396C60.8192 66.5304 60.2097 68.889 59.5772 71.5154C58.9447 74.1417 58.4775 76.7283 58.1755 79.2752C57.8069 81.8247 57.6625 84.1319 57.7422 86.1971C57.7579 88.3314 58.1207 89.9519 58.8306 91.0587C59.8527 89.8851 60.6557 88.2195 61.2396 86.0621C61.8927 83.9686 62.4035 81.6472 62.7721 79.0978C63.1433 76.6149 63.3786 74.0706 63.4782 71.4648C63.6469 68.9231 63.7248 66.6184 63.7117 64.5507C63.696 62.4164 63.6624 60.683 63.611 59.3507C63.6236 57.9492 63.6286 57.2151 63.6261 57.1485ZM76.7609 31.0224C75.4079 30.5409 74.5162 29.9081 74.0856 29.1242C73.5859 28.2761 73.6139 27.2743 74.1698 26.1187C74.8588 24.9579 75.9873 23.9469 77.5553 23.0858C79.0566 22.2273 80.7963 21.4929 82.7742 20.8829C84.7521 20.2728 86.8672 19.7575 89.1193 19.337C91.438 18.9139 93.6927 18.56 95.8834 18.2752L99.9252 8.91236C100.555 7.95401 101.172 7.49657 101.774 7.54004C102.376 7.58352 102.855 7.8986 103.211 8.48529C103.567 9.07199 103.797 9.83037 103.899 10.7604C104.069 11.6879 104.001 12.5245 103.696 13.2701C103.576 13.6084 103.325 14.0184 102.943 14.5001C102.561 14.9819 102.034 16.003 101.36 17.5635C103.423 17.4171 105.488 17.3374 107.555 17.3243C109.621 17.2446 111.555 17.2366 113.359 17.3004C115.163 17.3642 116.769 17.5023 118.178 17.7148C119.585 17.8607 120.694 18.0847 121.507 18.3869C121.981 18.5688 122.224 18.8262 122.237 19.1593C122.314 19.4232 122.223 19.6602 121.964 19.8704C121.772 20.0779 121.478 20.2227 121.08 20.3048C120.683 20.3868 120.281 20.3357 119.874 20.1512C117.188 19.7212 114.047 19.5756 110.45 19.7144C106.916 19.7841 103.424 20.0524 99.973 20.5192C98.8664 22.9637 97.6127 25.9142 96.2116 29.3708C94.8772 32.8249 93.5479 36.4122 92.2238 40.1327C90.9663 43.8506 89.7728 47.4994 88.6434 51.0789C87.5806 54.6559 86.7675 57.7896 86.2042 60.48C85.7075 63.1679 85.5208 65.2433 85.6439 66.7063C85.8338 68.1667 86.5512 68.606 87.7964 68.0242C88.3882 67.8012 89.2593 67.0337 90.4095 65.7217C91.629 64.4737 92.9393 62.9888 94.3406 61.2668C95.8059 59.4756 97.3007 57.5832 98.8249 55.5896C100.349 53.5959 101.779 51.7394 103.113 50.02C104.445 48.2339 105.555 46.7234 106.441 45.4882C107.394 44.2506 107.966 43.5279 108.159 43.3204C108.284 43.1154 108.577 42.9373 109.039 42.786C109.566 42.6322 109.834 42.6552 109.842 42.8551C109.599 43.4649 109.041 44.5873 108.171 46.2221C107.297 47.7903 106.234 49.6326 104.981 51.7492C103.726 53.7992 102.308 55.9555 100.728 58.2181C99.2112 60.4116 97.655 62.4398 96.059 64.3027C94.5322 66.2297 93.0245 67.789 91.5361 68.9807C90.1142 70.1697 88.8691 70.7515 87.8006 70.7261C85.7995 70.7366 84.3338 69.9259 83.4035 68.2939C82.5424 66.7259 82.0361 64.8441 81.8846 62.6483C81.8587 60.2475 82.249 57.397 83.0556 54.0967C83.8597 50.7299 84.8572 47.1888 86.0481 43.4734C87.303 39.6888 88.6579 35.9004 90.1127 32.1081C91.6315 28.2467 93.0927 24.6209 94.4964 21.2309C92.3775 21.6463 90.3598 22.0912 88.4433 22.5654C86.5269 23.0397 84.8128 23.5729 83.3012 24.165C81.787 24.6904 80.5406 25.2389 79.5619 25.8104C78.5166 26.3845 77.8057 26.9791 77.4291 27.594C77.1755 27.9374 77.155 28.2718 77.3678 28.5972C77.5805 28.9225 77.8265 29.2466 78.1058 29.5694C78.7259 30.0792 79.1078 30.4648 79.2513 30.7261C79.3282 30.99 79.268 31.1591 79.0707 31.2334C78.8734 31.3078 78.5737 31.3193 78.1714 31.2681C77.7025 31.2195 77.2323 31.1376 76.7609 31.0224ZM114.22 61.9004C116.05 60.8957 117.966 59.5541 119.969 57.8756C121.973 56.1971 123.874 54.4558 125.672 52.6517C127.468 50.7811 129.067 48.9847 130.468 47.2627C131.936 45.5382 133.016 44.1288 133.707 43.0346C133.958 42.6247 134.216 42.3812 134.48 42.3043C134.81 42.2248 135.079 42.2812 135.287 42.4733C135.558 42.5962 135.733 42.7897 135.81 43.0536C135.953 43.3149 135.963 43.5814 135.84 43.853C134.762 45.2956 133.526 46.9779 132.132 48.8998C130.805 50.819 129.345 52.7435 127.752 54.673C126.156 56.536 124.457 58.3362 122.656 60.0736C120.919 61.7419 119.138 63.1116 117.311 64.1829C115.548 65.1849 113.835 65.7514 112.173 65.8823C110.51 66.0132 109.031 65.7367 107.737 65.0528C106.443 64.3689 105.368 63.3096 104.512 61.8748C103.656 60.4401 103.156 58.7248 103.013 56.7289C102.797 54.6023 102.913 52.4295 103.361 50.2106C103.81 47.9916 104.532 45.9622 105.528 44.1224C106.589 42.2134 107.927 40.5939 109.544 39.2639C111.16 37.9339 113.029 37.0945 115.151 36.7458C116.545 36.5585 117.754 36.7787 118.779 37.4063C119.804 38.0339 120.288 39.3495 120.232 41.3532C120.191 42.0219 119.896 43.0007 119.345 44.2896C118.861 45.5759 118.076 46.8405 116.99 48.0833C115.97 49.3235 114.679 50.4408 113.116 51.4352C111.551 52.3629 109.667 52.8359 107.466 52.8542C107.328 54.4607 107.288 55.9967 107.344 57.4623C107.465 58.8587 107.778 60.0475 108.282 61.0288C108.785 61.9434 109.507 62.516 110.45 62.7464C111.46 62.9743 112.717 62.6923 114.22 61.9004ZM114.728 38.7636C114.067 38.9225 113.385 39.3825 112.68 40.1436C112.042 40.9021 111.412 41.8605 110.79 43.0187C110.165 44.1103 109.578 45.3338 109.03 46.6893C108.546 47.9756 108.195 49.2567 107.977 50.5327C109.243 50.4839 110.523 49.9341 111.817 48.8834C113.177 47.8302 114.266 46.6539 115.083 45.3548C115.964 43.9864 116.447 42.6668 116.531 41.396C116.616 40.1251 116.015 39.2476 114.728 38.7636ZM136.136 68.1597C134.801 68.1445 133.783 67.6834 133.08 66.7765C132.378 65.8696 132.188 64.4091 132.511 62.3952C132.9 60.3787 133.934 57.7702 135.611 54.5698C137.289 51.3693 139.843 47.5346 143.273 43.0657C142.817 43.3501 142.027 43.6141 140.902 43.8577C139.844 44.0987 138.615 44.2462 137.216 44.3002C135.884 44.3517 134.481 44.3057 133.008 44.1625C131.601 44.0166 130.354 43.6645 129.264 43.1061C128.175 42.5477 127.379 41.7778 126.874 40.7966C126.302 39.8179 126.185 38.5214 126.523 36.9072C126.751 35.8977 127.315 34.9419 128.214 34.0398C129.113 33.1378 130.151 32.3639 131.327 31.718C132.503 31.0722 133.688 30.6595 134.882 30.48C136.142 30.2979 137.216 30.4566 138.102 30.9561C138.856 31.4608 139.316 32.1435 139.482 33.0044C139.713 33.7961 139.715 34.6967 139.487 35.7063C139.323 36.6466 139.028 37.6587 138.603 38.7426C138.175 39.7598 137.71 40.6785 137.208 41.4984C138.338 41.3881 139.435 41.2791 140.498 41.1713C141.559 40.9969 142.524 40.9263 143.392 40.9595C144.325 40.9235 145.095 40.9939 145.702 41.1706C146.376 41.3447 146.89 41.6918 147.243 42.2119C146.483 43.242 145.565 44.545 144.492 46.1209C143.485 47.6943 142.449 49.3688 141.384 51.1446C140.385 52.9178 139.485 54.6871 138.686 56.4526C137.887 58.218 137.415 59.8041 137.269 61.2108C137.113 62.351 137.137 62.9839 137.342 63.1094C137.616 63.2989 138.243 63.108 139.221 62.5365C140.592 61.7497 142.245 60.485 144.179 58.7424C146.18 56.9973 148.207 55.0843 150.262 53.0035C152.383 50.9201 154.404 48.8406 156.326 46.7649C158.314 44.6867 159.98 42.9211 161.325 41.4681C161.52 41.3272 161.724 41.4194 161.936 41.7448C162.213 42.0009 162.226 42.334 161.975 42.744C161.227 44.1072 160.187 45.6818 158.855 47.4679C157.523 49.2539 156.025 51.0797 154.363 52.9452C152.767 54.8082 151.071 56.675 149.275 58.5457C147.543 60.3472 145.837 61.9475 144.156 63.3467C142.478 64.8125 140.922 65.9734 139.487 66.8294C138.122 67.7494 137.005 68.1928 136.136 68.1597ZM136.5 33.5198C135.89 33.2765 135.157 33.3048 134.302 33.6047C133.513 33.902 132.73 34.3659 131.954 34.9963C131.241 35.5575 130.668 36.2468 130.232 37.0642C129.794 37.815 129.589 38.5568 129.618 39.2896C129.71 39.9532 130.133 40.5373 130.886 41.042C131.703 41.4774 133.013 41.6938 134.814 41.6909C135.057 41.0811 135.33 40.3701 135.632 39.5578C135.999 38.6763 136.266 37.8321 136.435 37.0249C136.671 36.2152 136.81 35.5093 136.854 34.9072C136.895 34.2385 136.777 33.776 136.5 33.5198Z" fill="#1D1D1A"/>
</svg>
