<svg width="168" height="86" viewBox="0 0 168 86" fill="none" xmlns="http://www.w3.org/2000/svg">
<path d="M33.4059 72.1312C33.5209 69.9252 33.2785 67.9664 32.6787 66.2549C32.1455 64.5409 31.3843 62.9691 30.3951 61.5395C29.4725 60.1074 28.3514 58.7162 27.0316 57.3661C25.7785 56.0135 24.4562 54.5968 23.0647 53.116C21.7273 53.0342 20.5563 52.946 19.5519 52.8513C18.5449 52.69 17.5021 52.4634 16.4234 52.1715C15.3143 54.5494 14.0156 57.2014 12.5274 60.1277C11.0391 63.0539 9.64955 65.943 8.3586 68.7949C7.06765 71.6469 6.00214 74.2899 5.16208 76.7242C4.25798 79.2276 3.83292 81.1787 3.88693 82.5777C3.66161 83.6539 3.28248 84.2022 2.74954 84.2228C2.21918 84.31 1.74128 84.0282 1.31587 83.3775C0.826402 82.7959 0.493194 81.9415 0.316243 80.8141C0.075245 79.756 0.131453 78.6196 0.484866 77.4051C0.769091 76.1265 1.3684 74.3687 2.28279 72.1318C3.13314 69.9641 4.14231 67.59 5.31031 65.0097C6.48089 62.496 7.71679 59.9465 9.01803 57.361C10.3193 54.7755 11.4976 52.4617 12.5529 50.4195C11.8662 49.9123 11.442 49.2948 11.2805 48.5672C11.1856 47.837 11.2611 47.2002 11.507 46.657C11.8195 46.1112 12.2717 45.7268 12.8635 45.5038C13.5194 45.2117 14.3227 45.2807 15.2733 45.711C17.6479 41.5497 20.1903 37.4152 22.9005 33.3076C25.6082 29.1334 28.298 25.3601 30.9699 21.9879C33.6392 18.549 36.1972 15.6816 38.6438 13.3855C41.1544 11.0202 43.3654 9.53381 45.2767 8.9263C47.8619 8.49292 49.7823 8.98587 51.038 10.4052C52.2911 11.7578 52.6001 13.714 51.9651 16.2738C51.6142 17.5549 51.0803 19.2768 50.3632 21.4394C49.7101 23.5328 48.9379 25.9978 48.0467 28.8343C47.1529 31.6041 46.2027 34.643 45.1962 37.951C44.2564 41.2564 43.3895 44.7257 42.5958 48.3591C44.5148 47.9514 46.4274 47.3772 48.3336 46.6364C50.2398 45.8957 52.0435 45.0922 53.7446 44.2259C55.4433 43.293 56.9753 42.3666 58.3409 41.4466C59.7704 40.4573 60.9028 39.5463 61.738 38.7135C62.8167 39.0054 62.9782 39.7331 62.2225 40.8964C61.5309 41.9906 60.1782 43.2437 58.1645 44.6557C56.2174 46.0652 53.8027 47.4594 50.9205 48.8383C48.0356 50.1506 45.0034 51.1016 41.8237 51.6913C40.9199 55.9293 40.2184 60.2263 39.7194 64.5821C39.223 69.0045 39.0929 73.4128 39.3293 77.807C39.0605 79.4853 38.5917 80.304 37.923 80.2631C37.2542 80.2222 36.5675 79.7149 35.8627 78.7414C35.2272 77.8319 34.6505 76.72 34.1328 75.4056C33.615 74.0913 33.3727 72.9998 33.4059 72.1312ZM37.4189 49.0593C38.1718 46.0947 39.0528 42.9917 40.0618 39.7504C41.1349 36.4399 42.2106 33.196 43.2888 30.0187C44.3671 26.8414 45.4492 23.764 46.5351 20.7866C47.6185 17.7425 48.5789 14.9701 49.4164 12.4692C49.6495 11.5929 49.4675 11.1997 48.8705 11.2894C48.271 11.3126 47.5472 11.574 46.6992 12.0738C44.2755 13.2348 41.7174 15.235 39.0249 18.0743C36.3299 20.847 33.7143 23.9502 31.1782 27.3839C28.6421 30.8176 26.2751 34.3115 24.0772 37.8656C21.9434 41.3505 20.1938 44.4203 18.8286 47.0749C19.3052 47.3234 19.8484 47.5693 20.4582 47.8126C21.0681 48.0559 21.5793 48.3364 21.9918 48.6541C23.6701 48.9229 25.6789 49.1122 28.0182 49.222C30.4216 49.2627 33.5551 49.2084 37.4189 49.0593ZM36.4586 52.699C33.9297 52.8634 31.8646 52.9431 30.2632 52.9382C28.7285 52.9307 27.5947 52.9411 26.8619 52.9694C28.5302 54.7064 29.864 56.4228 30.8635 58.1189C31.9296 59.8124 33.1316 61.5673 34.4693 63.3837C34.6254 62.2435 34.7803 61.07 34.9338 59.8632C35.154 58.6538 35.4062 57.4098 35.6904 56.1312L36.4586 52.699Z" fill="#1D1D1A"/>
<path d="M95.6627 37.3038C96.1905 37.15 96.7235 37.1294 97.2615 37.2421C97.797 37.2881 98.1699 37.4405 98.38 37.6993C98.6542 37.8888 98.6965 38.1207 98.5069 38.3949C98.384 38.6665 97.9254 38.8844 97.1311 39.0485C95.9397 39.2946 94.6228 39.7457 93.1804 40.4019C91.7354 40.9914 90.2596 41.6488 88.7532 42.3741C87.2467 43.0994 85.7748 43.8568 84.3375 44.6461C82.8977 45.3689 81.5898 46.0532 80.4138 46.699C79.7965 47.9905 79.0831 49.3857 78.2737 50.8847C77.4616 52.3171 76.5471 53.6867 75.5301 54.9936C74.5131 56.3004 73.3897 57.4446 72.16 58.4261C70.9303 59.4076 69.6198 60.0253 68.2286 60.2792C67.5009 60.4407 66.8962 60.3306 66.4145 59.9489C65.9353 59.6338 65.7456 59.0407 65.8454 58.1695C65.9041 56.2325 66.6648 54.3351 68.1275 52.4773C69.6569 50.6169 72.0203 48.7577 75.2177 46.8996C75.5122 45.8875 75.7721 44.8434 75.9974 43.7672C76.2202 42.6244 76.4109 41.5162 76.5696 40.4426C76.8947 38.4953 77.0662 36.8875 77.0839 35.6192C77.0991 34.2843 76.8658 33.426 76.3841 33.0443C75.9689 32.66 75.24 32.7882 74.1973 33.4289C73.1546 34.0696 71.7699 35.3573 70.0432 37.2921C68.5113 39.0858 66.9589 41.2139 65.386 43.6765C63.8106 46.0723 62.2749 48.6335 60.779 51.3599C59.2805 54.0197 57.8524 56.7768 56.4948 59.6313C55.1373 62.4858 53.9424 65.2339 52.9102 67.8757C51.8806 70.5841 51.0751 73.0503 50.4938 75.2744C49.8485 77.5677 49.5233 79.515 49.5184 81.1164C49.4443 82.6537 49.2242 83.8631 48.8579 84.7446C48.4916 85.626 48.0728 86.0091 47.6013 85.8939C46.4585 85.6712 45.7039 85.1332 45.3373 84.28C44.9734 83.4935 44.9271 82.2944 45.1985 80.6827C45.4058 79.1402 45.9282 77.1186 46.7657 74.6178C47.5391 72.1861 48.5931 69.2433 49.9275 65.7892C50.7164 63.7573 51.5897 61.3218 52.5476 58.4827C53.4389 55.6462 54.3596 52.7085 55.3097 49.6696C56.3239 46.5615 57.3061 43.488 58.2562 40.4491C59.2064 37.4102 60.0361 34.7095 60.7455 32.347C61.519 29.9154 62.1785 27.9885 62.724 26.5664C63.267 25.0777 63.6051 24.3308 63.7383 24.3256C66.6054 24.2816 68.1313 24.9233 68.316 26.2505C68.4981 27.511 68.0013 29.3316 66.8256 31.712C65.7139 34.0233 64.2538 36.815 62.4454 40.0872C60.701 43.2902 59.3038 46.8468 58.2538 50.7568C58.2947 50.0881 58.6251 49.1413 59.245 47.9165C59.9315 46.6891 60.7461 45.3233 61.6888 43.8192C62.6981 42.3125 63.806 40.7686 65.0126 39.1875C66.2832 37.5373 67.5577 35.987 68.836 34.5366C70.8214 32.3917 72.4995 30.9259 73.8701 30.1391C75.3074 29.3497 76.4975 29.0703 77.4405 29.3008C78.3808 29.4646 79.1034 30.0372 79.6083 31.0184C80.1798 31.9971 80.5605 33.2167 80.7503 34.6771C81.0042 36.0683 81.1299 37.598 81.1276 39.2659C81.1227 40.8673 81.0486 42.4047 80.9053 43.878C82.4759 43.0835 84.6036 42.0339 87.2886 40.7294C89.9711 39.3582 92.7624 38.2164 95.6627 37.3038ZM71.437 55.2517C71.7624 55.0389 72.048 54.661 72.2939 54.1178C72.5398 53.5745 72.9074 52.7264 73.3966 51.5733C72.4282 52.4113 71.7237 53.1724 71.2831 53.8566C70.8399 54.4741 70.8912 54.9391 71.437 55.2517Z" fill="#1D1D1A"/>
<path d="M84.0972 23.94C82.7443 23.4585 81.8526 22.8257 81.422 22.0418C80.9222 21.1938 80.9503 20.1919 81.5061 19.0363C82.1952 17.8755 83.3237 16.8646 84.8917 16.0034C86.393 15.1449 88.1326 14.4106 90.1106 13.8005C92.0885 13.1904 94.2035 12.6751 96.4557 12.2546C98.7744 11.8315 101.029 11.4776 103.22 11.1929L107.262 1.82998C107.892 0.871628 108.508 0.414188 109.11 0.457664C109.712 0.501136 110.191 0.816219 110.548 1.40291C110.904 1.98961 111.133 2.74799 111.236 3.67806C111.405 4.60555 111.337 5.44212 111.032 6.18777C110.912 6.526 110.661 6.93599 110.279 7.41774C109.898 7.89949 109.37 8.9206 108.696 10.4811C110.759 10.3347 112.824 10.255 114.892 10.2419C116.957 10.1622 118.891 10.1542 120.695 10.218C122.499 10.2818 124.105 10.42 125.515 10.6324C126.921 10.7783 128.031 11.0023 128.843 11.3045C129.317 11.4864 129.561 11.7439 129.573 12.0769C129.65 12.3408 129.559 12.5779 129.301 12.788C129.109 12.9956 128.814 13.1404 128.417 13.2224C128.02 13.3045 127.617 13.2533 127.21 13.0689C124.525 12.6388 121.383 12.4932 117.786 12.632C114.253 12.7017 110.761 12.97 107.309 13.4368C106.203 15.8813 104.949 18.8318 103.548 22.2885C102.214 25.7425 100.884 29.3298 99.5602 33.0503C98.3026 36.7682 97.1092 40.417 95.9797 43.9966C94.9169 47.5736 94.1039 50.7072 93.5406 53.3976C93.0439 56.0855 92.8571 58.1609 92.9803 59.6239C93.1701 61.0843 93.8876 61.5236 95.1328 60.9418C95.7246 60.7188 96.5956 59.9513 97.7459 58.6393C98.9653 57.3914 100.276 55.9064 101.677 54.1844C103.142 52.3932 104.637 50.5008 106.161 48.5072C107.686 46.5136 109.115 44.657 110.45 42.9376C111.782 41.1516 112.891 39.641 113.777 38.4059C114.73 37.1682 115.303 36.4456 115.495 36.238C115.62 36.033 115.914 35.8549 116.375 35.7037C116.903 35.5498 117.171 35.5729 117.178 35.7727C116.935 36.3826 116.378 37.5049 115.507 39.1397C114.633 40.7079 113.57 42.5503 112.318 44.6668C111.063 46.7168 109.645 48.8731 108.064 51.1357C106.548 53.3292 104.991 55.3574 103.395 57.2203C101.869 59.1473 100.361 60.7067 98.8724 61.8983C97.4506 63.0874 96.2054 63.6692 95.137 63.6437C93.1359 63.6542 91.6702 62.8435 90.7399 61.2115C89.8788 59.6435 89.3725 57.7617 89.221 55.5659C89.195 53.1651 89.5853 50.3146 90.392 47.0144C91.196 43.6475 92.1935 40.1064 93.3844 36.391C94.6394 32.6065 95.9942 28.818 97.449 25.0258C98.9679 21.1643 100.429 17.5386 101.833 14.1486C99.7138 14.5639 97.6962 15.0088 95.7797 15.4831C93.8632 15.9573 92.1492 16.4905 90.6376 17.0826C89.1234 17.6081 87.8769 18.1566 86.8983 18.7281C85.853 19.3021 85.142 19.8967 84.7655 20.5117C84.5119 20.855 84.4914 21.1894 84.7041 21.5148C84.9168 21.8401 85.1628 22.1642 85.4422 22.487C86.0623 22.9968 86.4441 23.3824 86.5876 23.6437C86.6645 23.9076 86.6044 24.0767 86.4071 24.151C86.2098 24.2254 85.91 24.2369 85.5077 24.1858C85.0389 24.1371 84.5687 24.0552 84.0972 23.94Z" fill="#1D1D1A"/>
<path d="M125.314 45.8664C124.674 48.2929 123.497 50.64 121.783 52.9078C120.134 55.1064 118.363 56.776 116.473 57.9164C114.584 59.1235 112.801 59.5926 111.123 59.3238C109.445 59.055 108.289 57.6319 107.656 55.0544C107.184 53.2046 107.135 51.0715 107.509 48.6553C107.816 46.2417 108.46 43.9151 109.441 41.6756C110.486 39.3669 111.809 37.3477 113.41 35.618C115.011 33.8882 116.838 32.817 118.89 32.4042C119.948 32.1632 120.777 32.0311 121.377 32.008C121.976 31.9848 122.324 32.3384 122.418 33.0686C122.493 33.2659 122.768 33.4887 123.245 33.7372C123.722 33.9857 124.235 34.3328 124.786 34.7785C125.335 35.1576 125.821 35.6726 126.247 36.3233C126.672 36.9741 126.839 37.8349 126.747 38.9059C126.685 39.0418 126.628 39.2775 126.574 39.6131C126.52 39.9488 126.5 40.2832 126.513 40.6163C126.526 40.9493 126.57 41.2478 126.647 41.5117C126.724 41.7756 126.863 41.9037 127.062 41.896C128.333 41.9804 130.183 41.5087 132.612 40.4809C135.105 39.3839 138.282 37.8602 142.143 35.9098C142.494 36.3633 142.577 36.7937 142.393 37.2011C142.275 37.606 142.055 37.9481 141.732 38.2274C140.379 39.4805 138.887 40.5722 137.255 41.5025C135.689 42.4303 134.152 43.2235 132.643 43.8822C131.134 44.5409 129.719 45.0292 128.397 45.3471C127.141 45.6624 126.114 45.8355 125.314 45.8664ZM120.322 46.1592C119.709 45.8492 119.32 45.2638 119.153 44.403C118.987 43.5421 118.916 42.5774 118.941 41.509C119.034 40.438 119.16 39.399 119.322 38.392C119.48 37.3184 119.613 36.446 119.721 35.7746C118.809 36.3436 117.812 37.3161 116.731 38.6921C115.717 40.0656 114.775 41.6031 113.907 43.3045C113.105 45.0034 112.439 46.7637 111.909 48.5855C111.446 50.4047 111.274 52.0126 111.395 53.4089C111.464 55.2076 111.964 56.0556 112.894 55.953C113.824 55.8504 114.803 55.2789 115.83 54.2385C116.924 53.1955 117.908 51.8899 118.781 50.3217C119.721 48.7509 120.235 47.3634 120.322 46.1592Z" fill="#1D1D1A"/>
<path d="M148.456 52.7789C148.295 53.7858 147.968 54.8325 147.476 55.919C147.051 57.0029 146.524 58.024 145.893 58.9823C145.266 60.0073 144.633 60.899 143.995 61.6575C143.36 62.4827 142.75 63.1066 142.166 63.5295C141.195 64.3009 140.278 64.7366 139.414 64.8366C138.618 64.9341 137.976 64.7254 137.489 64.2104C137.004 63.7621 136.744 63.0716 136.708 62.139C136.672 61.2063 136.995 60.0597 137.676 58.6991C138.847 56.1854 140.94 53.3692 143.955 50.2506C142.138 48.1191 141.128 46.1566 140.926 44.3631C140.721 42.5029 140.625 40.9054 140.641 39.5705C140.643 37.9025 141.018 36.3869 141.766 35.0237C142.578 33.5913 143.499 32.3882 144.529 31.4144C145.556 30.374 146.559 29.5681 147.538 28.9966C148.581 28.3559 149.367 27.9919 149.898 27.9047C150.497 27.8816 150.839 28.1019 150.924 28.5656C151.072 28.9602 150.983 29.2305 150.655 29.3766C149.287 30.23 148.165 31.4075 147.289 32.9091C146.413 34.4107 145.808 36.0352 145.475 37.7827C145.14 39.4635 145.074 41.2007 145.276 42.9942C145.476 44.7211 145.934 46.2046 146.649 47.4446C149.162 45.1459 152.111 42.8972 155.495 40.6983C158.88 38.4995 162.673 36.5184 166.874 34.755C167.202 34.6089 167.406 34.7011 167.486 35.0316C167.565 35.3621 167.541 35.5966 167.413 35.7349C167.092 36.0809 166.412 36.6075 165.372 37.3148C164.329 37.9555 163.092 38.7372 161.66 39.6598C160.294 40.5798 158.833 41.6036 157.275 42.7312C155.781 43.7896 154.39 44.9108 153.102 46.0947C151.81 47.212 150.72 48.3549 149.831 49.5234C148.943 50.6919 148.484 51.777 148.456 52.7789Z" fill="#1D1D1A"/>
</svg>
