<svg width="204" height="80" viewBox="0 0 204 80" fill="none" xmlns="http://www.w3.org/2000/svg">
<path d="M31.3744 35.0778C33.4009 33.9989 35.7874 32.7392 38.5339 31.2988C41.2804 29.8585 43.959 28.3874 46.5697 26.8856C49.1778 25.3171 51.4887 23.8269 53.5024 22.4148C55.5161 21.0028 56.87 19.783 57.5642 18.7554C58.5121 17.3845 58.6003 16.2136 57.8289 15.2426C57.0576 14.2716 55.761 13.5211 53.9392 12.991C52.1148 12.3942 49.8971 11.9795 47.2862 11.7467C44.6753 11.5139 41.9709 11.4515 39.173 11.5595C36.3084 11.6701 33.253 12.0215 30.0068 12.6139C26.7606 13.2062 23.5233 14.0317 20.2951 15.0903C17.0669 16.149 13.9822 17.4689 11.041 19.0502C8.09978 20.6315 5.53656 22.4985 3.3513 24.651C2.44952 25.4864 1.8308 25.8773 1.49514 25.8235C1.15949 25.7698 0.950634 25.5443 0.868588 25.1472C0.786541 24.75 0.803134 24.3157 0.918367 23.8443C1.0336 23.3728 1.12324 23.1025 1.18728 23.0333C2.17858 21.0603 4.1717 19.1153 7.16665 17.1983C10.0924 15.2173 13.5268 13.4502 17.4698 11.8969C21.4103 10.2771 25.6288 8.94668 30.1253 7.90579C34.6218 6.86489 38.9352 6.26473 43.0655 6.10529C47.1957 5.94584 50.9135 6.33606 54.2189 7.27592C57.5909 8.21321 60.0573 9.88598 61.618 12.2942C63.2479 14.7665 63.4724 17.1263 62.2916 19.3735C61.1773 21.6182 59.1279 23.8322 56.1432 26.0156C53.156 28.1324 49.5026 30.275 45.183 32.4432C40.8609 34.5448 36.3401 36.6875 31.6209 38.8711C33.025 38.9504 34.6328 39.1218 36.4443 39.3855C38.2532 39.5825 40.0648 39.8461 41.8789 40.1764C43.7596 40.5041 45.5096 40.9036 47.129 41.3748C48.815 41.8434 50.2038 42.3903 51.2954 43.0153C55.0385 41.4698 58.824 40.1561 62.6518 39.0743C66.5462 37.9899 70.4881 37.2707 74.4774 36.9165C74.8771 36.9011 75.1141 36.992 75.1884 37.1893C75.3268 37.3174 75.3678 37.516 75.3115 37.785C75.2526 37.9874 75.1284 38.2257 74.9388 38.4999C74.8158 38.7715 74.7236 38.9752 74.6622 39.111C71.0828 39.7162 67.5791 40.552 64.1511 41.6184C60.7896 42.6821 57.5332 43.8753 54.3819 45.1979C55.8477 46.8759 56.4513 48.6873 56.1928 50.632C55.9317 52.5102 55.2364 54.3717 54.1067 56.2167C52.977 58.0616 51.6411 59.7477 50.0988 61.275C48.5592 62.869 47.2078 64.1554 46.0447 65.1343C44.3667 66.6001 42.3863 68.0109 40.1035 69.3666C37.89 70.7864 35.5701 72.0435 33.1438 73.1379C30.7201 74.2989 28.29 75.2934 25.8535 76.1213C23.4861 77.0133 21.2763 77.6657 19.224 78.0785C17.1743 78.5579 15.3808 78.7606 13.8435 78.6865C12.3753 78.6765 11.3286 78.35 10.7034 77.7069C10.342 76.987 10.2445 76.1902 10.4109 75.3164C10.6465 74.5067 11.105 73.4216 11.7864 72.0609C12.6573 70.4261 13.4053 69.0629 14.0303 67.9713C14.7245 66.9438 15.3534 65.9521 15.9169 64.9964C16.5471 64.038 17.1427 63.0476 17.7037 62.0252C18.2646 61.0028 18.882 59.7114 19.5556 58.1509C20.2267 56.5238 20.9835 54.5265 21.8261 52.1589C22.6688 49.7913 23.6881 46.8164 24.8842 43.2343C23.6261 43.483 22.2375 43.8034 20.7181 44.1957C19.1988 44.5879 17.9292 44.5368 16.9094 44.0425C16.2996 43.7992 16.311 43.2316 16.9437 42.3399C17.5739 41.3815 19.3467 39.7786 22.2622 37.5311C23.0001 37.6361 23.7048 37.7423 24.3761 37.8498C25.0474 37.9574 25.7482 37.9637 26.4784 37.8688C27.6461 33.5538 28.5551 29.4491 29.2054 25.5544C29.9197 21.5906 30.1959 18.3775 30.0342 15.9153C30.011 15.3157 30.3274 14.8698 30.9833 14.5777C31.6366 14.2189 32.3668 14.1239 33.1739 14.2929C34.0451 14.3927 34.8279 14.7962 35.5224 15.5033C36.2809 16.1411 36.6538 17.1608 36.6412 18.5624C35.5092 22.0753 34.5322 25.2821 33.7101 28.1826C32.8855 31.0165 32.1069 33.3149 31.3744 35.0778ZM16.7942 72.1679C15.7157 73.6105 15.2521 74.5625 15.4034 75.0236C15.5572 75.5514 16.0658 75.7653 16.9292 75.6652C17.7953 75.6318 18.8854 75.3562 20.1998 74.8385C21.5807 74.3181 22.8938 73.7671 24.1389 73.1853C27.4184 71.7244 30.7887 70.0264 34.25 68.0915C37.7113 66.1565 40.7984 64.0359 43.5115 61.7295C46.2937 59.4872 48.4687 57.0681 50.0364 54.4724C51.6015 51.81 52.1968 49.085 51.8224 46.2974C47.4951 48.2658 43.474 50.3892 39.7591 52.6675C36.1108 54.9432 32.797 57.2394 29.8174 59.5561C26.9045 61.8702 24.3221 64.1048 22.0703 66.2599C19.8876 68.4791 18.1289 70.4484 16.7942 72.1679ZM29.6613 42.5495C27.8122 48.225 26.4753 52.4798 25.6507 55.3137C24.8235 58.081 24.5943 59.0572 24.9631 58.2424C26.2621 57.3249 27.8889 56.2614 29.8437 55.0517C31.8625 53.7729 33.9147 52.4928 36.0001 51.2114C38.1522 49.9274 40.2402 48.7126 42.2642 47.5671C44.3548 46.4189 46.1534 45.4821 47.6598 44.7568C46.7169 44.5264 45.5075 44.3062 44.0317 44.0963C42.5558 43.8864 40.9813 43.7137 39.3082 43.5781C37.6324 43.3759 35.9247 43.2084 34.185 43.0754C32.5092 42.8732 31.0014 42.6979 29.6613 42.5495ZM74.4766 62.4355C73.1417 62.4204 72.1231 61.9593 71.421 61.0524C70.7188 60.1455 70.529 58.685 70.8515 56.6711C71.2407 54.6546 72.2742 52.0461 73.952 48.8457C75.6298 45.6452 78.1838 41.8105 81.6139 37.3416C81.1579 37.626 80.3675 37.89 79.2427 38.1336C78.1845 38.3746 76.956 38.5221 75.557 38.5761C74.2247 38.6275 72.8219 38.5816 71.3486 38.4383C69.9419 38.2925 68.6941 37.9404 67.605 37.382C66.516 36.8236 65.7191 36.0537 65.2142 35.0725C64.6427 34.0938 64.5259 32.7973 64.8639 31.1831C65.0918 30.1735 65.6553 29.2178 66.5545 28.3157C67.4538 27.4137 68.4913 26.6398 69.6673 25.9939C70.8433 25.3481 72.0282 24.9354 73.2222 24.7559C74.4828 24.5738 75.5564 24.7325 76.443 25.232C77.1963 25.7367 77.6563 26.4194 77.823 27.2803C78.0537 28.072 78.0551 28.9726 77.8272 29.9821C77.6634 30.9225 77.3689 31.9346 76.9437 33.0185C76.5159 34.0357 76.051 34.9544 75.5489 35.7743C76.6789 35.664 77.7755 35.555 78.8388 35.4472C79.8995 35.2728 80.8642 35.2022 81.7328 35.2354C82.6654 35.1994 83.4354 35.2698 84.0426 35.4465C84.7165 35.6206 85.2303 35.9677 85.5839 36.4878C84.8231 37.5179 83.906 38.8209 82.8327 40.3968C81.826 41.9702 80.7898 43.6447 79.7241 45.4205C78.7251 47.1937 77.8261 48.963 77.0269 50.7285C76.2277 52.4939 75.7552 54.08 75.6094 55.4867C75.4533 56.6269 75.4777 57.2597 75.6827 57.3853C75.9569 57.5748 76.5833 57.3839 77.562 56.8123C78.9326 56.0256 80.5851 54.7609 82.5193 53.0183C84.5201 51.2732 86.5479 49.3602 88.6025 47.2794C90.7237 45.196 92.745 43.1165 94.6663 41.0408C96.6543 38.9626 98.3208 37.197 99.6657 35.744C99.8604 35.6031 100.064 35.6953 100.277 36.0207C100.554 36.2768 100.566 36.6099 100.315 37.0199C99.5675 38.3831 98.5274 39.9577 97.1953 41.7438C95.8632 43.5298 94.3659 45.3556 92.7033 47.2211C91.1073 49.0841 89.4114 50.9509 87.6155 52.8216C85.8837 54.623 84.1775 56.2234 82.4969 57.6226C80.8189 59.0884 79.2625 60.2493 77.8278 61.1053C76.4622 62.0253 75.3452 62.4687 74.4766 62.4355ZM74.8407 27.7957C74.2308 27.5524 73.498 27.5807 72.6423 27.8806C71.8532 28.1779 71.0705 28.6418 70.2942 29.2722C69.582 29.8334 69.0082 30.5227 68.5727 31.3401C68.1347 32.0909 67.9298 32.8327 67.9581 33.5655C68.0504 34.2291 68.4733 34.8132 69.2266 35.3179C70.044 35.7533 71.3534 35.9697 73.1546 35.9668C73.3979 35.357 73.6707 34.646 73.9729 33.8337C74.3392 32.9522 74.6068 32.108 74.7758 31.3008C75.0114 30.4911 75.151 29.7852 75.1944 29.1831C75.2353 28.5144 75.1174 28.0519 74.8407 27.7957ZM109.697 45.1641C109.057 47.5906 107.88 49.9378 106.166 52.2055C104.516 54.4042 102.746 56.0737 100.855 57.2141C98.9668 58.4212 97.1836 58.8903 95.5053 58.6215C93.827 58.3527 92.6712 56.9296 92.038 54.3521C91.5663 52.5023 91.5173 50.3692 91.8911 47.953C92.1982 45.5394 92.8422 43.2128 93.8233 40.9733C94.8683 38.6646 96.1914 36.6454 97.7925 34.9157C99.3937 33.186 101.22 32.1147 103.273 31.7019C104.331 31.4609 105.16 31.3288 105.759 31.3057C106.359 31.2825 106.706 31.6361 106.801 32.3663C106.875 32.5636 107.151 32.7864 107.627 33.0349C108.104 33.2834 108.618 33.6305 109.169 34.0762C109.717 34.4553 110.204 34.9703 110.629 35.621C111.055 36.2718 111.221 37.1326 111.129 38.2037C111.068 38.3395 111.01 38.5752 110.956 38.9109C110.903 39.2465 110.882 39.5809 110.895 39.914C110.908 40.2471 110.953 40.5455 111.03 40.8094C111.107 41.0733 111.245 41.2014 111.445 41.1937C112.716 41.2781 114.566 40.8064 116.994 39.7786C119.487 38.6816 122.664 37.1579 126.525 35.2075C126.876 35.661 126.96 36.0914 126.775 36.4989C126.657 36.9037 126.437 37.2458 126.114 37.5251C124.762 38.7782 123.269 39.8699 121.637 40.8003C120.072 41.728 118.535 42.5212 117.026 43.1799C115.517 43.8386 114.101 44.3269 112.779 44.6448C111.524 44.9601 110.496 45.1332 109.697 45.1641ZM104.704 45.4569C104.092 45.147 103.702 44.5615 103.536 43.7007C103.369 42.8398 103.298 41.8751 103.324 40.8067C103.416 39.7357 103.543 38.6967 103.704 37.6897C103.863 36.6161 103.996 35.7437 104.103 35.0724C103.191 35.6413 102.195 36.6138 101.114 37.9898C100.099 39.3633 99.1578 40.9008 98.2894 42.6022C97.4877 44.3011 96.8218 46.0614 96.2916 47.8832C95.8281 49.7024 95.6567 51.3103 95.7773 52.7066C95.8467 54.5053 96.3465 55.3533 97.2766 55.2507C98.2066 55.1481 99.1853 54.5766 100.213 53.5362C101.307 52.4932 102.29 51.1876 103.164 49.6194C104.104 48.0487 104.617 46.6611 104.704 45.4569ZM157.048 31.1271C158.224 30.4813 159.185 30.3107 159.931 30.6155C160.743 30.9178 161.367 31.5275 161.803 32.4447C162.236 33.2953 162.442 34.3214 162.422 35.5231C162.402 36.7248 162.148 37.9354 161.661 39.1551C162.802 39.3113 164.033 39.2304 165.355 38.9125C166.741 38.5254 168.089 38.0063 169.398 37.3554C170.774 36.7018 172.079 35.9509 173.314 35.1026C174.549 34.2544 175.65 33.4112 176.619 32.5733C177.172 33.0856 177.455 33.5083 177.468 33.8414C177.481 34.1745 177.329 34.5473 177.011 34.9599C175.989 36.1335 174.663 37.2188 173.034 38.2157C171.471 39.2101 169.87 40.0725 168.23 40.803C166.588 41.4668 165.008 42.0282 163.491 42.487C161.972 42.8792 160.777 43.0255 159.906 42.9257C157.918 46.7385 155.781 50.1568 153.496 53.1805C151.209 56.1376 149.054 58.2223 147.033 59.4345C146.379 59.7933 145.652 59.9548 144.85 59.9191C144.048 59.8833 143.273 59.6797 142.525 59.3083C141.776 58.9369 141.123 58.4284 140.564 57.7828C140.008 57.2038 139.615 56.5185 139.384 55.7268C139.007 54.6072 138.919 53.1762 139.118 51.4338C139.315 49.6249 139.61 47.7455 140.001 45.7956C140.393 43.8457 140.821 41.9611 141.284 40.1419C141.745 38.256 142.051 36.6764 142.202 35.403C141.454 36.7662 140.518 38.4368 139.393 40.415C138.336 42.3906 137.179 44.4034 135.924 46.4534C134.733 48.4341 133.539 50.3483 132.343 52.1958C131.146 54.0433 130.136 55.5167 129.311 56.616C129.185 56.821 128.893 57.0324 128.435 57.2503C128.045 57.5322 127.587 57.75 127.059 57.9038C126.534 58.1243 126.005 58.2448 125.472 58.2653C124.939 58.2859 124.499 58.1361 124.153 57.8159C122.882 55.9969 122.227 53.7204 122.188 50.9866C122.15 48.2527 122.509 45.4701 123.267 42.6387C124.023 39.7408 124.984 37.0016 126.152 34.4213C127.384 31.7718 128.569 29.6245 129.707 27.9794C130.022 27.5003 130.51 27.1812 131.171 27.0223C131.829 26.7967 132.494 26.7377 133.165 26.8452C133.837 26.9527 134.381 27.2319 134.799 27.6828C135.283 28.1311 135.506 28.7229 135.468 29.4583C133.495 31.9362 131.897 34.5999 130.673 37.4492C129.448 40.2986 128.517 42.9698 127.88 45.4629C127.242 47.956 126.857 50.0725 126.724 51.8122C126.591 53.552 126.596 54.5525 126.739 54.8139C126.883 55.0752 127.272 54.7933 127.908 53.9682C128.54 53.0764 129.327 51.8452 130.267 50.2744C131.207 48.7037 132.271 46.8946 133.46 44.8472C134.649 42.7998 135.87 40.7512 137.126 38.7012C138.378 36.5847 139.6 34.536 140.791 32.5553C142.049 30.5719 143.217 28.8589 144.296 27.4163C144.618 27.1369 145.044 26.9204 145.572 26.7666C146.166 26.6102 146.731 26.555 147.266 26.6011C147.802 26.6471 148.241 26.7969 148.585 27.0505C148.926 27.2375 149.072 27.5655 149.023 28.0344C148.967 28.3034 148.726 28.9799 148.301 30.0637C147.942 31.145 147.494 32.4967 146.956 34.1186C146.482 35.6714 145.983 37.4253 145.458 39.3803C144.933 41.3354 144.475 43.2878 144.083 45.2377C143.758 47.1851 143.563 49.0606 143.5 50.8644C143.502 52.6657 143.729 54.2247 144.181 55.5416C144.473 56.1975 145.074 56.2077 145.983 55.5721C146.959 54.934 148.021 53.9256 149.169 52.547C150.316 51.1684 151.522 49.554 152.785 47.7039C154.045 45.7872 155.14 43.9102 156.07 42.073C155.119 41.6427 154.526 40.9651 154.29 40.0401C154.052 39.0486 154.012 38.016 154.17 36.9424C154.396 35.8663 154.756 34.8183 155.25 33.7985C155.808 32.7094 156.408 31.819 157.048 31.1271ZM182.508 50.1592C182.347 51.1661 182.021 52.2128 181.529 53.2993C181.104 54.3832 180.576 55.4043 179.946 56.3626C179.318 57.3876 178.685 58.2793 178.048 59.0378C177.412 59.863 176.803 60.4869 176.218 60.9098C175.247 61.6811 174.33 62.1169 173.467 62.2169C172.67 62.3144 172.028 62.1056 171.541 61.5907C171.057 61.1424 170.797 60.4519 170.761 59.5193C170.725 58.5866 171.047 57.44 171.729 56.0794C172.899 53.5657 174.992 50.7495 178.008 47.6309C176.191 45.4994 175.181 43.5369 174.978 41.7434C174.773 39.8832 174.678 38.2857 174.693 36.9508C174.695 35.2828 175.071 33.7672 175.819 32.404C176.631 30.9716 177.552 29.7685 178.581 28.7947C179.609 27.7543 180.612 26.9484 181.59 26.3769C182.633 25.7362 183.42 25.3722 183.95 25.285C184.55 25.2619 184.892 25.4822 184.976 25.9459C185.125 26.3405 185.035 26.6108 184.707 26.7569C183.339 27.6103 182.217 28.7878 181.341 30.2894C180.465 31.791 179.861 33.4155 179.528 35.163C179.192 36.8438 179.126 38.581 179.329 40.3745C179.529 42.1014 179.986 43.5849 180.701 44.8249C183.215 42.5262 186.163 40.2775 189.548 38.0786C192.932 35.8798 196.725 33.8987 200.927 32.1353C201.255 31.9892 201.459 32.0814 201.538 32.4119C201.617 32.7424 201.593 32.9768 201.465 33.1152C201.145 33.4612 200.465 33.9878 199.425 34.6951C198.382 35.3358 197.144 36.1175 195.712 37.0401C194.347 37.9601 192.885 38.9839 191.327 40.1115C189.834 41.1699 188.443 42.2911 187.154 43.475C185.863 44.5923 184.773 45.7352 183.884 46.9037C182.995 48.0722 182.536 49.1573 182.508 50.1592Z" fill="#1D1D1A"/>
</svg>
