<svg width="916" height="3307" viewBox="0 0 916 3307" fill="none" xmlns="http://www.w3.org/2000/svg">
<path opacity="0.4" d="M363.026 3306C388.143 3018.19 256.934 2824.99 145.515 2735.61M145.515 2735.61C63.8306 2670.08 -7.217 2660.36 1.76953 2710.06C14.0972 2778.25 69.2011 2848.2 145.515 2735.61ZM145.515 2735.61C200.712 2654.17 267.005 2477.24 336.233 2135.06C402.887 1805.62 518.801 1653.25 629.392 1599.1M651.163 1C753.204 115.781 705.048 333.672 642.091 459.893M642.091 459.893C600.107 544.065 551.541 587.471 536.547 532.344C519.166 468.443 576.716 441.527 642.091 459.893ZM642.091 459.893C717.686 481.13 803.745 562.913 796.515 718.071C783.033 1007.41 665.502 1116.38 584.799 1341.64C555.912 1422.27 581.686 1517.42 629.392 1599.1M629.392 1599.1C714.965 1745.61 871.105 1848.81 908.899 1747.21C943.975 1652.92 792.469 1519.24 629.392 1599.1Z" stroke="white" stroke-width="2"/>
</svg>
