<svg width="707" height="1749" viewBox="0 0 707 1749" fill="none" xmlns="http://www.w3.org/2000/svg">
<path opacity="0.4" d="M293.826 1748C312.615 1595.87 193.384 1554.75 110.034 1507.5M110.034 1507.5C48.9268 1472.87 -4.22267 1467.73 2.5 1494C11.7221 1530.04 52.9445 1567.02 110.034 1507.5ZM110.034 1507.5C151.326 1464.46 221.994 1309.92 273.782 1129.05C323.645 954.907 410.358 874.369 493.09 845.742M509.376 1C585.711 61.6725 549.686 176.848 502.59 243.568M502.59 243.568C471.182 288.061 434.851 311.004 423.634 281.865C410.631 248.087 453.683 233.859 502.59 243.568ZM502.59 243.568C559.141 254.793 623.52 298.023 618.111 380.039C608.026 532.982 520.103 590.584 459.73 709.655C438.12 752.275 457.402 802.567 493.09 845.742M493.09 845.742C557.106 923.189 673.911 977.738 702.184 924.034C728.423 874.191 615.085 803.529 493.09 845.742Z" stroke="#EAD8CD" stroke-width="2"/>
</svg>
