<svg width="246" height="85" viewBox="0 0 246 85" fill="none" xmlns="http://www.w3.org/2000/svg">
<path d="M25.0687 56.8056C23.3243 60.0086 21.6747 63.0745 20.1198 66.0033C18.6316 68.9296 17.1997 71.5868 15.8242 73.9749C14.4512 76.4297 13.1639 78.5143 11.9625 80.2286C10.8277 81.9403 9.7402 83.1498 8.70005 83.8571C8.24401 84.1416 7.81615 84.2915 7.41644 84.307C7.08593 84.3864 6.81689 84.3301 6.60932 84.138C6.40176 83.9458 6.32228 83.6153 6.3709 83.1464C6.41951 82.6775 6.66284 82.0677 7.10087 81.3169C7.7439 80.6916 8.50473 79.6615 9.38336 78.2266C10.262 76.7916 11.1637 75.0889 12.0883 73.1184C13.0822 71.212 14.1004 69.0711 15.1429 66.6958C16.252 64.3179 17.3239 61.8414 18.3587 59.2662C16.9674 59.5201 15.8016 59.5651 14.8613 59.4012C13.9875 59.2348 13.7005 58.7122 14.0001 57.8333C14.0642 57.7641 14.1948 57.6923 14.3921 57.618C14.656 57.5411 15.0173 57.3937 15.4759 57.1759C16.0011 56.9555 16.6224 56.6312 17.3397 56.2033C18.1237 55.7727 18.9999 55.1384 19.9683 54.3004C21.2413 50.9822 22.4783 47.5986 23.6795 44.1497C24.8807 40.7008 25.9231 37.4582 26.8066 34.4219C27.7542 31.3163 28.4827 28.5862 28.9923 26.2315C29.4993 23.8101 29.7283 21.9666 29.6794 20.7008C29.664 20.3011 29.8164 19.9283 30.1366 19.5824C30.5235 19.2339 30.9821 19.016 31.5125 18.9288C32.1069 18.7724 32.6731 18.7506 33.2112 18.8632C33.8159 18.9733 34.2938 19.2551 34.6449 19.7086C35.2779 20.5514 35.4984 21.944 35.3065 23.8861C35.112 25.7617 34.6934 27.8794 34.0506 30.2393C33.4745 32.5966 32.7343 35.027 31.8302 37.5304C30.9261 40.0338 30.0476 42.3361 29.1947 44.4372C28.4084 46.5358 27.7079 48.2641 27.0931 49.6221C26.545 50.9776 26.2722 51.6887 26.2748 51.7553C28.1015 50.684 30.2164 49.3014 32.6195 47.6074C35.0201 45.8469 37.4475 43.9185 39.9018 41.8222C42.3561 39.726 44.7079 37.567 46.9572 35.3453C49.2039 33.0569 51.0868 30.8493 52.6059 28.7224C54.1225 26.529 55.1778 24.4867 55.772 22.5957C56.3661 20.7048 56.2032 19.0765 55.2832 17.711C54.3632 16.3454 52.59 15.3464 49.9636 14.7139C47.3347 14.0148 43.5913 13.8257 38.7334 14.1467C35.874 14.3905 32.825 14.9085 29.5865 15.7007C26.348 16.4929 23.1185 17.5182 19.8979 18.7767C16.6774 20.0352 13.6004 21.555 10.667 23.3362C7.73091 25.0507 5.17025 26.9843 2.98499 29.1368C2.14983 29.9697 1.56442 30.3592 1.22876 30.3055C0.826491 30.2543 0.617639 30.0288 0.602209 29.6291C0.520162 29.232 0.536755 28.7977 0.651988 28.3262C0.700604 27.8573 0.756934 27.5883 0.82098 27.5191C1.81228 25.5461 3.70419 23.5716 6.49672 21.5958C9.35586 19.6173 12.6544 17.7887 16.3925 16.11C20.1971 14.4286 24.2132 13.0393 28.4407 11.9421C32.7322 10.7757 36.8432 10.1166 40.7736 9.9649C44.768 9.74398 48.35 10.0727 51.5196 10.9511C54.7558 11.8269 57.1543 13.469 58.715 15.8772C59.7274 17.9063 60.08 20.1277 59.7728 22.5414C59.4631 24.8884 58.6231 27.3226 57.2527 29.844C55.8822 32.3654 54.0455 34.9048 51.7424 37.4622C49.5034 39.9505 46.962 42.3836 44.1183 44.7618C41.272 47.0733 38.2208 49.2593 34.9645 51.3198C31.7082 53.3802 28.4096 55.2088 25.0687 56.8056Z" fill="#1D1D1A"/>
<path d="M51.6172 58.5828C52.7906 57.8703 54.0229 56.9555 55.3141 55.8382C56.6027 54.6542 57.8542 53.3717 59.0685 51.9905C60.3494 50.6067 61.5624 49.1922 62.7075 47.7469C63.9166 46.2325 64.9938 44.7565 65.9391 43.319C65.3984 43.1397 64.8232 42.9284 64.2133 42.6851C63.6701 42.4392 63.1909 42.1241 62.7758 41.7398C60.9795 40.1413 60.3079 38.2991 60.7611 36.2134C60.989 35.2039 61.5205 34.2827 62.3557 33.4499C63.2549 32.5478 64.2605 31.8085 65.3724 31.2318C66.5484 30.586 67.7333 30.1733 68.9273 29.9938C70.1853 29.7451 71.255 29.8039 72.1365 30.1701C73.5637 30.8489 74.0828 32.1966 73.6936 34.2131C73.3685 36.1604 72.4874 38.396 71.0503 40.92C72.0496 40.8815 72.9809 40.8121 73.8444 40.7121C74.7053 40.5454 75.4009 40.4185 75.9313 40.3313C77.261 40.2133 78.3961 40.2362 79.3364 40.4C80.3408 40.4947 81.0212 40.8353 81.3774 41.422C80.5551 42.588 79.5125 44.096 78.2496 45.9461C77.0507 47.727 75.8903 49.6398 74.7683 51.6846C73.7104 53.6602 72.8178 55.5961 72.0904 57.4922C71.363 59.3884 71.0929 61.0334 71.2801 62.4272C71.6901 62.6782 72.4152 62.4501 73.4554 61.7428C74.5647 61.0995 75.8636 60.182 77.3521 58.9904C78.8406 57.7988 80.4212 56.4034 82.0941 54.8044C83.8311 53.1361 85.5347 51.4692 87.205 49.8035C88.8754 48.1378 90.447 46.5093 91.9201 44.918C93.4572 43.2574 94.7701 41.8391 95.8589 40.6629C96.0536 40.5219 96.2227 40.5821 96.3662 40.8434C96.5764 41.1022 96.6238 41.4673 96.5086 41.9388C96.3933 42.4102 95.9579 43.2276 95.2022 44.391C94.4439 45.4877 93.459 46.76 92.2472 48.2078C91.1021 49.653 89.8264 51.1701 88.4199 52.7588C87.0801 54.345 85.7698 55.83 84.4889 57.2138C83.208 58.5975 82.0205 59.8109 80.9266 60.8539C79.8968 61.8277 79.1218 62.4914 78.6017 62.8451C77.7588 63.478 77.0466 64.0393 76.4651 64.5287C75.8835 65.0182 75.3327 65.4398 74.8126 65.7934C74.3617 66.2111 73.8737 66.5302 73.3484 66.7506C72.8924 67.0351 72.3659 67.2222 71.7689 67.312C70.4391 67.43 69.2938 67.1406 68.3329 66.4439C67.3719 65.7471 66.9208 64.4302 66.9795 62.4931C67.1073 60.6201 67.9435 58.086 69.4881 54.8907C71.0326 51.6954 73.6122 47.6596 77.2268 42.7832C76.7042 43.0702 75.6819 43.3765 74.16 43.7021C72.7021 43.9586 71.0713 44.0549 69.2675 43.9911C68.1301 45.6362 66.8941 47.3185 65.5594 49.0379C64.2221 50.6907 62.849 52.2782 61.44 53.8003C60.031 55.3225 58.6502 56.7101 57.2975 57.9632C56.0089 59.1471 54.8112 60.094 53.7044 60.8039C52.5336 61.583 51.6484 61.9841 51.0489 62.0073C50.3827 62.033 49.9766 61.8819 49.8305 61.5539C49.6818 61.1594 49.7637 60.6892 50.0763 60.1434C50.3862 59.531 50.8998 59.0108 51.6172 58.5828ZM69.8386 32.8608C69.4978 32.6738 69.0302 32.6585 68.4357 32.8149C67.9079 32.9687 67.352 33.257 66.7679 33.6798C66.2504 34.1001 65.7713 34.6523 65.3307 35.3365C64.8901 36.0207 64.5853 36.7663 64.4163 37.5734C64.2602 38.7136 64.4922 39.5386 65.1123 40.0484C65.7965 40.489 66.6074 40.758 67.5452 40.8552C68.8619 38.6694 69.7917 36.8322 70.3347 35.3435C70.8751 33.7882 70.7097 32.9606 69.8386 32.8608Z" fill="#1D1D1A"/>
<path d="M105.935 50.0812C105.295 52.5077 104.118 54.8548 102.404 57.1226C100.754 59.3212 98.9841 60.9908 97.0934 62.1312C95.2052 63.3383 93.422 63.8074 91.7437 63.5386C90.0654 63.2698 88.9097 61.8467 88.2764 59.2692C87.8047 57.4194 87.7557 55.2863 88.1295 52.8701C88.4366 50.4565 89.0807 48.1299 90.0617 45.8904C91.1067 43.5817 92.4298 41.5625 94.031 39.8328C95.6321 38.103 97.4588 37.0318 99.5111 36.619C100.569 36.378 101.398 36.2459 101.998 36.2228C102.597 36.1996 102.944 36.5532 103.039 37.2834C103.114 37.4806 103.389 37.7035 103.866 37.952C104.342 38.2005 104.856 38.5476 105.407 38.9933C105.955 39.3724 106.442 39.8874 106.868 40.5381C107.293 41.1889 107.46 42.0497 107.368 43.1207C107.306 43.2566 107.249 43.4923 107.195 43.8279C107.141 44.1636 107.121 44.498 107.134 44.8311C107.146 45.1641 107.191 45.4626 107.268 45.7265C107.345 45.9904 107.483 46.1185 107.683 46.1108C108.954 46.1952 110.804 45.7235 113.233 44.6957C115.726 43.5987 118.903 42.075 122.764 40.1246C123.115 40.5781 123.198 41.0085 123.014 41.416C122.896 41.8208 122.676 42.1629 122.353 42.4422C121 43.6953 119.508 44.787 117.876 45.7173C116.31 46.6451 114.773 47.4383 113.264 48.097C111.755 48.7557 110.339 49.244 109.017 49.5619C107.762 49.8772 106.735 50.0503 105.935 50.0812ZM100.943 50.374C100.33 50.064 99.9408 49.4786 99.7741 48.6178C99.6075 47.7569 99.5368 46.7922 99.5623 45.7238C99.6544 44.6528 99.7811 43.6138 99.9424 42.6068C100.101 41.5332 100.234 40.6608 100.342 39.9894C99.4296 40.5584 98.4331 41.5309 97.352 42.9069C96.3376 44.2804 95.3962 45.8179 94.5278 47.5193C93.7261 49.2182 93.0602 50.9785 92.5301 52.8003C92.0666 54.6195 91.8951 56.2274 92.0157 57.6237C92.0852 59.4224 92.5849 60.2704 93.515 60.1678C94.4451 60.0652 95.4237 59.4937 96.451 58.4533C97.545 57.4103 98.5287 56.1047 99.4022 54.5365C100.342 52.9657 100.856 51.5782 100.943 50.374Z" fill="#1D1D1A"/>
<path d="M135.67 41.1275C136.338 41.1684 136.756 41.6193 136.923 42.4802C137.089 43.3411 137.128 44.3403 137.039 45.478C136.946 46.549 136.753 47.5905 136.459 48.6027C136.231 49.6122 135.991 50.322 135.74 50.732C136.829 51.2904 138.165 51.3389 139.749 50.8774C141.396 50.3468 143.032 49.5164 144.656 48.3863C146.345 47.1869 147.96 45.8236 149.502 44.2963C151.042 42.7024 152.315 41.1188 153.322 39.5454C153.45 39.4071 153.782 39.3609 154.317 39.4069C154.853 39.453 155.124 39.5759 155.132 39.7758C154.418 42.005 153.165 44.1216 151.374 46.1255C149.65 48.1268 147.716 49.8694 145.572 51.3532C143.491 52.7678 141.398 53.8494 139.292 54.5978C137.183 55.2797 135.421 55.4144 134.004 55.0021C133.468 56.6907 132.729 58.2871 131.787 59.7912C130.913 61.3594 129.93 62.665 128.836 63.708C127.811 64.815 126.707 65.5915 125.523 66.0375C124.342 66.5501 123.243 66.5925 122.226 66.1648C119.919 65.1863 118.448 63.3751 117.813 60.7309C117.179 58.1535 117.128 55.0865 117.658 51.5301C118.254 47.9711 119.307 44.1276 120.815 39.9997C122.39 35.8692 124.235 31.795 126.348 27.7772C128.458 23.6927 130.711 19.8363 133.107 16.2079C135.499 12.5128 137.814 9.38787 140.05 6.83304C142.353 4.27563 144.45 2.4267 146.341 1.28625C148.229 0.0791812 149.725 -0.0452966 150.83 0.912816C152.137 1.92983 152.758 3.34023 152.694 5.14404C152.628 6.88123 152.139 8.9016 151.227 11.2051C150.313 13.4421 149.037 15.8264 147.4 18.3581C145.763 20.8898 143.96 23.4279 141.99 25.9725C140.017 28.4504 138.009 30.863 135.965 33.2103C133.984 35.4884 132.128 37.5281 130.396 39.3296C128.665 41.1311 127.186 42.5892 125.962 43.7039C124.735 44.752 123.956 45.3158 123.625 45.3953C123.154 47.0147 122.823 48.7955 122.631 50.7377C122.439 52.6798 122.343 54.5182 122.343 56.2528C122.341 57.9208 122.463 59.3505 122.709 60.5419C123.022 61.7308 123.447 62.3815 123.985 62.4942C124.254 62.5505 124.654 62.5351 125.184 62.4479C125.715 62.3607 126.237 62.0736 126.752 61.5867C127.334 61.0973 127.872 60.3426 128.366 59.3228C128.861 58.303 129.206 56.8886 129.403 55.0796C129.155 53.8216 128.902 52.4637 128.646 51.0058C128.453 49.4788 128.464 48.044 128.68 46.7013C128.961 45.3561 129.616 44.1633 130.643 43.1229C131.67 42.0825 133.346 41.4174 135.67 41.1275ZM149.101 5.38283C146.572 7.28178 144.06 9.61375 141.565 12.3787C139.137 15.1411 136.85 18.1315 134.706 21.35C132.562 24.5684 130.622 27.8791 128.885 31.2819C127.215 34.6822 125.874 37.9697 124.862 41.1444C129.814 36.3498 133.907 31.7552 137.14 27.3606C140.439 22.9634 143.027 19.1274 144.902 15.8526C146.774 12.5112 148.007 9.89503 148.602 8.00404C149.26 6.04386 149.426 5.17012 149.101 5.38283Z" fill="#1D1D1A"/>
<path d="M176.111 6.84203C175.85 8.72016 175.144 11.1825 173.994 14.2292C172.842 17.2092 171.296 20.3712 169.357 23.7151C167.482 26.9899 165.272 30.2442 162.728 33.4781C160.249 36.6427 157.55 39.3155 154.632 41.4964C153.497 46.6773 152.834 51.1062 152.643 54.783C152.518 58.4572 152.669 61.5203 153.098 63.9723C153.526 66.4242 154.165 68.301 155.016 69.6025C155.936 70.968 156.907 71.9312 157.93 72.4922C158.883 72.9891 159.372 73.5707 159.398 74.2369C159.424 74.903 158.73 75.0633 157.315 74.7176C155.501 74.3873 153.926 73.3473 152.591 71.5975C151.323 69.8451 150.336 67.6148 149.631 64.9067C148.929 62.2651 148.548 59.311 148.488 56.0442C148.493 52.7082 148.896 49.3234 149.697 45.89C150.381 42.8613 151.315 39.3894 152.498 35.4742C153.681 31.559 155.065 27.6693 156.651 23.8053C158.3 19.8721 160.159 16.1643 162.226 12.682C164.293 9.19964 166.552 6.37705 169.004 4.2142C170.037 3.30703 171.046 2.66762 172.032 2.29596C173.019 1.9243 173.849 1.82554 174.523 1.99968C175.263 2.17124 175.784 2.68489 176.083 3.54062C176.381 4.32974 176.39 5.43021 176.111 6.84203ZM156.756 34.3091C156.574 34.7831 156.36 35.2917 156.114 35.835C155.935 36.3756 155.757 36.9496 155.58 37.5568C157.256 36.0244 159.009 33.9219 160.841 31.2492C162.67 28.51 164.363 25.7092 165.921 22.847C167.476 19.9182 168.804 17.1649 169.905 14.5872C171.07 11.9403 171.827 9.9429 172.176 8.59513C172.414 7.85206 172.429 7.38445 172.221 7.19232C172.078 6.93099 171.75 7.07708 171.238 7.63059C169.693 9.09127 168.23 10.9491 166.849 13.204C165.466 15.3923 164.156 17.7446 162.919 20.2609C161.679 22.7105 160.54 25.1896 159.503 27.6982C158.463 30.1401 157.547 32.3437 156.756 34.3091Z" fill="#1D1D1A"/>
<path d="M177.805 56.1133C179.634 55.1087 181.551 53.7671 183.554 52.0886C185.557 50.4101 187.458 48.6688 189.257 46.8647C191.053 44.9941 192.651 43.1977 194.052 41.4757C195.52 39.7511 196.6 38.3418 197.292 37.2476C197.543 36.8376 197.8 36.5942 198.064 36.5173C198.395 36.4378 198.664 36.4941 198.871 36.6863C199.143 36.8092 199.317 37.0026 199.394 37.2665C199.538 37.5279 199.548 37.7943 199.425 38.0659C198.346 39.5086 197.11 41.1909 195.717 43.1127C194.39 45.032 192.93 46.9564 191.336 48.886C189.74 50.749 188.042 52.5492 186.241 54.2866C184.504 55.9548 182.722 57.3246 180.895 58.3958C179.133 59.3979 177.42 59.9644 175.757 60.0953C174.094 60.2262 172.616 59.9497 171.322 59.2658C170.028 58.5819 168.953 57.5225 168.097 56.0878C167.241 54.6531 166.741 52.9378 166.597 50.9418C166.382 48.8152 166.498 46.6425 166.946 44.4235C167.394 42.2046 168.116 40.1752 169.113 38.3354C170.173 36.4264 171.512 34.8069 173.128 33.4769C174.745 32.1469 176.614 31.3075 178.735 30.9587C180.129 30.7715 181.339 30.9917 182.363 31.6193C183.388 32.2469 183.873 33.5625 183.817 35.5662C183.776 36.2349 183.48 37.2137 182.929 38.5026C182.445 39.7889 181.66 41.0534 180.574 42.2962C179.554 43.5365 178.263 44.6538 176.7 45.6482C175.135 46.5759 173.252 47.0489 171.051 47.0671C170.913 48.6737 170.872 50.2097 170.929 51.6753C171.049 53.0717 171.362 54.2605 171.867 55.2418C172.369 56.1564 173.092 56.7289 174.035 56.9594C175.044 57.1873 176.301 56.9053 177.805 56.1133ZM178.313 32.9765C177.652 33.1355 176.969 33.5955 176.265 34.3566C175.627 35.1151 174.996 36.0734 174.374 37.2316C173.749 38.3232 173.162 39.5468 172.614 40.9023C172.13 42.1885 171.779 43.4697 171.562 44.7457C172.827 44.6968 174.107 44.1471 175.401 43.0964C176.761 42.0431 177.85 40.8669 178.667 39.5678C179.549 38.1994 180.031 36.8798 180.116 35.609C180.2 34.3381 179.599 33.4606 178.313 32.9765Z" fill="#1D1D1A"/>
<path d="M207.044 49.8808C207.144 49.0097 207.288 47.5697 207.478 45.5609C207.667 43.5521 208.215 40.462 209.121 36.2906C208.043 37.7333 207.058 39.0055 206.166 40.1074C205.272 41.1427 204.322 42.447 203.315 44.0203C202.375 45.5911 201.251 47.5693 199.942 49.9549C198.633 52.3405 197.056 55.5703 195.212 59.6445C194.843 60.4594 194.365 61.0449 193.779 61.4011C193.194 61.824 192.635 62.0124 192.099 61.9663C191.564 61.9203 191.119 61.6372 190.765 61.1171C190.414 60.6637 190.321 59.9668 190.485 59.0264C191.048 56.336 191.687 53.8762 192.401 51.647C193.18 49.3486 193.926 47.0848 194.641 44.8555C195.422 42.6237 196.132 40.2613 196.769 37.7682C197.407 35.275 197.898 32.454 198.244 29.305C198.298 28.9693 198.488 28.7284 198.816 28.5824C199.208 28.3671 199.636 28.2171 200.1 28.1325C200.63 28.0453 201.129 27.9927 201.595 27.9747C202.125 27.8875 202.488 27.7735 202.683 27.6325C202.947 27.5556 203.029 27.9527 202.929 28.8239C202.829 29.6951 202.604 30.7712 202.253 32.0524C201.969 33.331 201.59 34.7466 201.116 36.2994C200.709 37.8496 200.298 39.2999 199.883 40.6502C199.532 41.9314 199.207 43.0114 198.907 43.8903C198.605 44.7025 198.454 45.1087 198.454 45.1087C198.459 45.2419 198.463 45.3418 198.465 45.4084C198.534 45.4725 198.6 45.4366 198.661 45.3008C198.787 45.0958 199.102 44.6166 199.606 43.8633C200.111 43.1099 200.71 42.2194 201.405 41.1919C202.166 40.1618 202.992 39.0958 203.883 37.9939C204.772 36.8254 205.633 35.7914 206.465 34.892C207.365 33.99 208.238 33.2891 209.086 32.7893C209.998 32.2204 210.791 32.023 211.465 32.1971C212.339 32.3635 212.803 33.1462 212.857 34.5452C212.977 35.9416 212.903 37.4789 212.635 39.1572C212.366 40.8355 212.027 42.4164 211.617 43.9C211.274 45.381 211.075 46.2893 211.021 46.625C210.96 46.7608 210.968 46.9606 211.045 47.2245C211.119 47.4218 211.223 47.5179 211.356 47.5127C211.986 46.5544 212.93 45.0835 214.188 43.1002C215.446 41.1169 216.735 39.099 218.057 37.0465C219.376 34.9273 220.602 32.9786 221.734 31.2003C222.933 29.4193 223.788 28.2188 224.297 27.5987C224.746 27.1144 225.299 26.7594 225.958 26.5339C226.683 26.3057 227.348 26.2467 227.952 26.3568C228.621 26.3977 229.128 26.5783 229.474 26.8985C229.884 27.1495 230.065 27.5095 230.016 27.9784C229.96 28.2474 229.69 29.0251 229.206 30.3114C228.786 31.5285 228.276 33.0159 227.677 34.7737C227.075 36.4648 226.478 38.2892 225.886 40.2468C225.361 42.2019 224.931 44.0198 224.596 45.7007C224.258 47.3149 224.143 48.6537 224.251 49.717C224.358 50.7803 224.779 51.2978 225.511 51.2695C226.377 51.2361 227.717 50.5172 229.531 49.1128C231.345 47.7085 233.219 46.135 235.153 44.3924C237.085 42.5833 238.851 40.8138 240.452 39.0841C242.12 37.3518 243.208 36.1423 243.715 35.4555C244.102 35.107 244.564 34.9891 245.102 35.1018C245.707 35.2118 245.948 35.4027 245.825 35.6743C245.774 36.0766 245.145 37.0682 243.938 38.6493C242.729 40.1637 241.261 41.8883 239.535 43.823C237.875 45.7552 236.081 47.6924 234.155 49.6349C232.295 51.5747 230.654 53.1392 229.232 54.3282C228.002 55.3097 226.824 55.889 225.697 56.0659C224.569 56.2429 223.562 56.0816 222.676 55.5821C221.858 55.1466 221.196 54.405 220.688 53.3571C220.181 52.3092 219.964 51.0166 220.038 49.4793C220.12 48.1418 220.575 46.0894 221.402 43.3221C222.296 40.5522 223.241 37.3801 224.237 33.8057C224.234 33.7391 224.161 33.5751 224.018 33.3138C223.941 33.0499 223.838 32.9871 223.71 33.1255C222.573 34.7706 221.531 36.3119 220.586 37.7494C219.708 39.1844 218.829 40.6193 217.95 42.0543C217.136 43.4201 216.256 44.8217 215.311 46.2593C214.429 47.6276 213.487 49.1318 212.482 50.7717C211.98 51.5917 211.398 52.0478 210.734 52.1402C210.134 52.1633 209.53 52.0532 208.92 51.8099C208.377 51.564 207.897 51.2489 207.482 50.8647C207.131 50.4112 206.985 50.0833 207.044 49.8808Z" fill="#1D1D1A"/>
</svg>
