<svg width="85" height="82" viewBox="0 0 85 82" fill="none" xmlns="http://www.w3.org/2000/svg">
<path d="M74.6474 0H23.4295C17.7628 0 13.0769 4.79728 13.0769 10.5986V69.7279H1.63462C0.762821 69.7279 0 70.5088 0 71.4014C0 77.2027 4.6859 82 10.3526 82H57.2115C62.8782 82 67.5641 77.2027 67.5641 71.4014V12.2721H83.3654C84.2372 12.2721 85 11.4912 85 10.5986C85 4.68571 80.3141 0 74.6474 0ZM10.3526 78.5415C6.97436 78.5415 4.25 76.1986 3.48718 72.9633H45.8782C46.2051 75.083 47.1859 76.9796 48.6026 78.5415H10.3526ZM64.2949 71.2898C64.2949 75.3061 61.1346 78.5415 57.2115 78.5415H56.1218C52.1987 78.5415 49.0385 75.3061 49.0385 71.2898C49.0385 70.3973 48.2756 69.6163 47.4038 69.6163H16.3462V10.4871C16.3462 6.47075 19.5064 3.23537 23.4295 3.23537H67.1282C65.3846 5.24354 64.2949 7.69796 64.2949 10.5986V71.2898ZM67.7821 8.92517C68.5449 5.68979 71.3782 3.34694 74.6474 3.34694C77.9167 3.34694 80.75 5.68979 81.5128 8.92517H67.7821ZM55.9038 19.6354C55.9038 20.5279 55.141 21.3088 54.2692 21.3088H24.5192C23.6474 21.3088 22.8846 20.5279 22.8846 19.6354C22.8846 18.7429 23.6474 17.9619 24.5192 17.9619H54.2692C55.25 17.9619 55.9038 18.7429 55.9038 19.6354ZM48.2756 33.2463C48.2756 34.1388 47.5128 34.9197 46.641 34.9197H24.5192C23.6474 34.9197 22.8846 34.1388 22.8846 33.2463C22.8846 32.3537 23.6474 31.5728 24.5192 31.5728H46.641C47.6218 31.5728 48.2756 32.2422 48.2756 33.2463ZM55.9038 33.2463C55.9038 34.1388 55.141 34.9197 54.2692 34.9197H52.8526C51.9808 34.9197 51.2179 34.1388 51.2179 33.2463C51.2179 32.3537 51.9808 31.5728 52.8526 31.5728H54.2692C55.25 31.5728 55.9038 32.2422 55.9038 33.2463ZM48.2756 44.4027C48.2756 45.2952 47.5128 46.0762 46.641 46.0762H24.5192C23.6474 46.0762 22.8846 45.2952 22.8846 44.4027C22.8846 43.5102 23.6474 42.7293 24.5192 42.7293H46.641C47.6218 42.7293 48.2756 43.3986 48.2756 44.4027ZM55.9038 44.4027C55.9038 45.2952 55.141 46.0762 54.2692 46.0762H52.8526C51.9808 46.0762 51.2179 45.2952 51.2179 44.4027C51.2179 43.5102 51.9808 42.7293 52.8526 42.7293H54.2692C55.25 42.7293 55.9038 43.3986 55.9038 44.4027ZM48.2756 55.5592C48.2756 56.4517 47.5128 57.2327 46.641 57.2327H24.5192C23.6474 57.2327 22.8846 56.4517 22.8846 55.5592C22.8846 54.6667 23.6474 53.8857 24.5192 53.8857H46.641C47.6218 53.8857 48.2756 54.5551 48.2756 55.5592ZM55.9038 55.5592C55.9038 56.4517 55.141 57.2327 54.2692 57.2327H52.8526C51.9808 57.2327 51.2179 56.4517 51.2179 55.5592C51.2179 54.6667 51.9808 53.8857 52.8526 53.8857H54.2692C55.25 53.8857 55.9038 54.5551 55.9038 55.5592Z" fill="#2B2B2B"/>
</svg>
