<svg width="342" height="199" viewBox="0 0 342 199" fill="none" xmlns="http://www.w3.org/2000/svg">
<path d="M5.03193 40.3365C3.40843 39.7587 2.33835 38.9994 1.82167 38.0586C1.22197 37.041 1.25562 35.8388 1.92263 34.452C2.74951 33.0591 4.10372 31.846 5.98526 30.8126C7.78686 29.7823 9.87443 28.9012 12.248 28.1691C14.6215 27.437 17.1595 26.8186 19.8621 26.314C22.6445 25.8063 25.3502 25.3816 27.979 25.0399L32.8292 13.8045C33.5854 12.6544 34.3247 12.1055 35.0473 12.1577C35.7698 12.2098 36.3449 12.5879 36.7723 13.292C37.1998 13.996 37.4751 14.9061 37.5983 16.0221C37.8013 17.1351 37.72 18.139 37.3543 19.0338C37.2098 19.4397 36.9086 19.9317 36.4505 20.5098C35.9925 21.0879 35.3593 22.3132 34.5509 24.1858C37.026 24.0102 39.5041 23.9145 41.9854 23.8988C44.4635 23.8031 46.7849 23.7936 48.9494 23.8701C51.114 23.9467 53.0418 24.1124 54.7329 24.3674C56.4209 24.5424 57.7523 24.8113 58.727 25.1739C59.2959 25.3922 59.588 25.7011 59.6034 26.1008C59.6957 26.4175 59.5866 26.7019 59.2761 26.9541C59.0455 27.2032 58.692 27.3769 58.2154 27.4754C57.7389 27.5738 57.2561 27.5124 56.7672 27.2911C53.5449 26.775 49.7754 26.6003 45.4586 26.7669C41.2187 26.8506 37.028 27.1724 32.8865 27.7326C31.5586 30.666 30.0541 34.2067 28.3729 38.3546C26.7715 42.4995 25.1764 46.8042 23.5875 51.2688C22.0784 55.7304 20.6463 60.1089 19.2909 64.4044C18.0156 68.6967 17.0399 72.4572 16.3639 75.6857C15.7679 78.911 15.5438 81.4015 15.6916 83.1571C15.9194 84.9097 16.7804 85.4368 18.2746 84.7387C18.9848 84.4711 20.03 83.5501 21.4103 81.9757C22.8736 80.4781 24.4461 78.6961 26.1276 76.6297C27.886 74.4803 29.6798 72.2094 31.5088 69.8171C33.3379 67.4247 35.0533 65.1969 36.6549 63.1336C38.2534 60.9903 39.5844 59.1777 40.6481 57.6955C41.7916 56.2103 42.4787 55.3432 42.7092 55.0941C42.8599 54.8481 43.2119 54.6343 43.7653 54.4529C44.3986 54.2683 44.7199 54.2959 44.7292 54.5357C44.4372 55.2675 43.7687 56.6143 42.7236 58.5761C41.6754 60.4579 40.3997 62.6688 38.8966 65.2087C37.3903 67.6686 35.6889 70.2562 33.7922 72.9714C31.9724 75.6035 30.1049 78.0374 28.1897 80.2729C26.3575 82.5853 24.5484 84.4565 22.7622 85.8864C21.056 87.3133 19.5618 88.0115 18.2796 87.9809C15.8783 87.9935 14.1195 87.0207 13.0031 85.0623C11.9698 83.1807 11.3622 80.9225 11.1804 78.2875C11.1493 75.4066 11.6177 71.986 12.5856 68.0257C13.5505 63.9855 14.7475 59.7361 16.1766 55.2777C17.6825 50.7362 19.3084 46.1901 21.0541 41.6394C22.8767 37.0056 24.6302 32.6548 26.3145 28.5868C23.7719 29.0852 21.3507 29.619 19.0509 30.1881C16.7511 30.7573 14.6943 31.3971 12.8803 32.1076C11.0633 32.7382 9.5676 33.3963 8.39318 34.0822C7.13882 34.7711 6.2857 35.4845 5.83383 36.2225C5.5295 36.6345 5.50496 37.0358 5.76021 37.4262C6.01546 37.8167 6.31068 38.2056 6.64588 38.5929C7.39003 39.2047 7.84822 39.6673 8.02044 39.9809C8.11272 40.2976 8.0405 40.5005 7.80376 40.5897C7.56703 40.6789 7.2073 40.6928 6.72457 40.6314C6.1619 40.5731 5.59769 40.4747 5.03193 40.3365ZM54.4924 66.6481C53.7242 69.5599 52.3118 72.3765 50.2552 75.0979C48.2755 77.7362 46.1512 79.7396 43.8823 81.1082C41.6165 82.5567 39.4766 83.1196 37.4627 82.7971C35.4488 82.4745 34.0619 80.7668 33.302 77.6738C32.7359 75.4539 32.6772 72.8943 33.1256 69.9948C33.4942 67.0985 34.2671 64.3066 35.4443 61.6192C36.6983 58.8487 38.2861 56.4257 40.2074 54.35C42.1288 52.2744 44.3208 50.9889 46.7836 50.4935C48.0533 50.2043 49.048 50.0458 49.7674 50.018C50.4869 49.9903 50.9036 50.4145 51.0175 51.2908C51.1067 51.5275 51.4372 51.7949 52.0091 52.0931C52.5811 52.3913 53.1976 52.8078 53.8587 53.3427C54.5168 53.7976 55.101 54.4156 55.6115 55.1965C56.122 55.9773 56.322 57.0104 56.2115 58.2956C56.1378 58.4586 56.0686 58.7415 56.0041 59.1442C55.9396 59.547 55.9151 59.9483 55.9305 60.348C55.9459 60.7477 55.9998 61.1059 56.0921 61.4226C56.1843 61.7392 56.3504 61.8929 56.5902 61.8837C58.1153 61.9849 60.3351 61.4189 63.2497 60.1855C66.2411 58.8692 70.0534 57.0407 74.6866 54.7003C75.1079 55.2444 75.2079 55.761 74.9866 56.2499C74.8452 56.7357 74.5809 57.1462 74.1935 57.4814C72.5703 58.9851 70.7795 60.2952 68.8211 61.4115C66.9427 62.5248 65.098 63.4767 63.2871 64.2671C61.4763 65.0576 59.7776 65.6435 58.1912 66.025C56.6846 66.4034 55.4517 66.6111 54.4924 66.6481ZM48.5015 66.9995C47.7666 66.6276 47.2992 65.9251 47.0992 64.892C46.8992 63.859 46.8145 62.7014 46.8451 61.4192C46.9556 60.134 47.1076 58.8872 47.3011 57.6789C47.4916 56.3906 47.6513 55.3436 47.7803 54.538C46.6858 55.2208 45.49 56.3878 44.1927 58.039C42.9754 59.6872 41.8457 61.5322 40.8037 63.5739C39.8416 65.6125 39.0425 67.7249 38.4063 69.9111C37.8501 72.0942 37.6444 74.0235 37.7892 75.6992C37.8725 77.8576 38.4722 78.8752 39.5883 78.7521C40.7043 78.6289 41.8788 77.9431 43.1115 76.6946C44.4242 75.4431 45.6047 73.8764 46.6528 71.9945C47.781 70.1096 48.3972 68.4446 48.5015 66.9995ZM115.987 52.6256C116.62 52.441 117.26 52.4164 117.905 52.5515C118.548 52.6068 118.995 52.7897 119.247 53.1002C119.576 53.3277 119.627 53.6059 119.4 53.9349C119.252 54.2609 118.702 54.5223 117.749 54.7192C116.319 55.0146 114.739 55.5559 113.008 56.3433C111.274 57.0507 109.503 57.8396 107.695 58.71C105.887 59.5804 104.121 60.4892 102.396 61.4364C100.669 62.3037 99.0991 63.1248 97.688 63.8999C96.9472 65.4496 96.0911 67.1239 95.1198 68.9227C94.1454 70.6415 93.048 72.2851 91.8275 73.8533C90.6071 75.4216 89.2591 76.7946 87.7834 77.9724C86.3078 79.1502 84.7352 79.8914 83.0657 80.196C82.1925 80.3899 81.4669 80.2578 80.8888 79.7997C80.3138 79.4216 80.0861 78.7099 80.2059 77.6645C80.2763 75.34 81.1891 73.0631 82.9445 70.8337C84.7797 68.6013 87.6158 66.3702 91.4526 64.1406C91.806 62.926 92.1179 61.6731 92.3883 60.3817C92.6556 59.0103 92.8845 57.6805 93.0749 56.3922C93.4651 54.0554 93.6708 52.1261 93.6921 50.6041C93.7103 49.0022 93.4304 47.9722 92.8523 47.5142C92.3541 47.0531 91.4794 47.2069 90.2281 47.9758C88.9769 48.7446 87.3152 50.2899 85.2433 52.6115C83.4049 54.764 81.542 57.3178 79.6546 60.2728C77.7641 63.1479 75.9213 66.2212 74.1262 69.4929C72.328 72.6846 70.6143 75.9932 68.9852 79.4186C67.3561 82.844 65.9223 86.1418 64.6836 89.3119C63.4481 92.562 62.4815 95.5215 61.784 98.1904C61.0095 100.942 60.6194 103.279 60.6135 105.201C60.5246 107.046 60.2604 108.497 59.8209 109.555C59.3813 110.612 58.8787 111.072 58.313 110.934C56.9416 110.666 56.036 110.021 55.5962 108.997C55.1595 108.053 55.1039 106.614 55.4296 104.68C55.6784 102.829 56.3053 100.403 57.3102 97.4023C58.2384 94.4844 59.5031 90.953 61.1044 86.8081C62.051 84.3698 63.0991 81.4472 64.2485 78.0403C65.318 74.6365 66.4229 71.1113 67.563 67.4646C68.7801 63.7348 69.9587 60.0466 71.0989 56.3999C72.239 52.7532 73.2348 49.5124 74.086 46.6775C75.0142 43.7595 75.8056 41.4472 76.4602 39.7407C77.1118 37.9543 77.5175 37.0579 77.6774 37.0518C81.1179 36.999 82.949 37.769 83.1706 39.3616C83.3891 40.8743 82.7929 43.0589 81.3821 45.9155C80.0481 48.689 78.296 52.0391 76.1259 55.9657C74.0326 59.8093 72.3559 64.0772 71.096 68.7693C71.1451 67.9668 71.5416 66.8306 72.2854 65.3608C73.1092 63.888 74.0867 62.249 75.2179 60.4441C76.4291 58.636 77.7586 56.7833 79.2065 54.8861C80.7312 52.9058 82.2606 51.0454 83.7946 49.3049C86.1771 46.7311 88.1908 44.9721 89.8356 44.028C91.5603 43.0807 92.9884 42.7454 94.12 43.022C95.2484 43.2186 96.1155 43.9056 96.7214 45.0831C97.4072 46.2576 97.864 47.721 98.0918 49.4735C98.3964 51.143 98.5473 52.9786 98.5445 54.9802C98.5386 56.9018 98.4497 58.7466 98.2778 60.5146C100.162 59.5612 102.716 58.3018 105.938 56.7363C109.157 55.0909 112.506 53.7207 115.987 52.6256ZM86.9158 74.163C87.3063 73.9078 87.649 73.4542 87.9441 72.8023C88.2392 72.1505 88.6803 71.1327 89.2673 69.749C88.1052 70.7546 87.2598 71.6679 86.7311 72.4889C86.1993 73.23 86.2609 73.788 86.9158 74.163ZM30.5042 162.004C30.3106 163.213 29.9188 164.469 29.3286 165.773C28.8184 167.073 28.1852 168.299 27.429 169.449C26.6759 170.679 25.9166 171.749 25.1512 172.659C24.3888 173.649 23.6571 174.398 22.9562 174.905C21.791 175.831 20.6904 176.354 19.6542 176.474C18.698 176.591 17.9278 176.34 17.3435 175.722C16.7623 175.184 16.4501 174.356 16.4069 173.237C16.3637 172.117 16.7509 170.741 17.5686 169.109C18.9733 166.092 21.4848 162.713 25.1031 158.971C22.9228 156.413 21.7111 154.058 21.4679 151.906C21.2216 149.673 21.1075 147.756 21.1258 146.154C21.1286 144.153 21.5787 142.334 22.4763 140.698C23.4507 138.979 24.5559 137.536 25.7917 136.367C27.0245 135.119 28.2281 134.152 29.4025 133.466C30.6537 132.697 31.5976 132.26 32.234 132.156C32.9535 132.128 33.364 132.392 33.4655 132.949C33.6439 133.422 33.5364 133.746 33.1428 133.922C31.5011 134.946 30.1546 136.359 29.1034 138.161C28.0521 139.963 27.3267 141.912 26.9273 144.009C26.5248 146.026 26.4452 148.111 26.6884 150.263C26.9285 152.335 27.4776 154.115 28.3356 155.603C31.3515 152.845 34.89 150.146 38.9512 147.508C43.0125 144.869 47.5642 142.492 52.6063 140.376C52.9998 140.2 53.2443 140.311 53.3396 140.708C53.435 141.104 53.4058 141.386 53.2521 141.552C52.8679 141.967 52.0516 142.599 50.8034 143.448C49.5522 144.216 48.0672 145.154 46.3487 146.262C44.71 147.366 42.9561 148.594 41.0869 149.947C39.2946 151.217 37.6252 152.563 36.0789 153.983C34.5295 155.324 33.2214 156.696 32.1547 158.098C31.088 159.5 30.5378 160.802 30.5042 162.004ZM93.6205 138.552C94.2539 138.368 94.8934 138.343 95.5391 138.478C96.1817 138.534 96.6291 138.716 96.8813 139.027C97.2103 139.254 97.2611 139.533 97.0336 139.862C96.8861 140.188 96.3357 140.449 95.3826 140.646C93.9529 140.941 92.3726 141.483 90.6417 142.27C88.9077 142.977 87.1368 143.766 85.3291 144.637C83.5213 145.507 81.755 146.416 80.0303 147.363C78.3025 148.23 76.733 149.052 75.3218 149.827C74.581 151.376 73.725 153.051 72.7537 154.849C71.7792 156.568 70.6818 158.212 69.4614 159.78C68.241 161.348 66.893 162.721 65.4173 163.899C63.9416 165.077 62.369 165.818 60.6995 166.123C59.8264 166.317 59.1007 166.184 58.5226 165.726C57.9476 165.348 57.72 164.637 57.8398 163.591C57.9102 161.267 58.823 158.99 60.5783 156.76C62.4136 154.528 65.2496 152.297 69.0865 150.067C69.4399 148.853 69.7518 147.6 70.0222 146.308C70.2895 144.937 70.5183 143.607 70.7088 142.319C71.0989 139.982 71.3047 138.053 71.326 136.531C71.3442 134.929 71.0643 133.899 70.4862 133.441C69.988 132.98 69.1133 133.134 67.862 133.902C66.6107 134.671 64.9491 136.217 62.8771 138.538C61.0388 140.691 59.1759 143.244 57.2885 146.199C55.398 149.075 53.5552 152.148 51.76 155.42C49.9618 158.611 48.2482 161.92 46.6191 165.345C44.99 168.771 43.5561 172.068 42.3175 175.239C41.082 178.489 40.1154 181.448 39.4178 184.117C38.6434 186.869 38.2533 189.206 38.2474 191.127C38.1585 192.972 37.8943 194.424 37.4547 195.481C37.0152 196.539 36.5126 196.999 35.9468 196.86C34.5755 196.593 33.6699 195.948 33.2301 194.924C32.7934 193.98 32.7378 192.541 33.0634 190.607C33.3122 188.756 33.9391 186.33 34.9441 183.329C35.8722 180.411 37.137 176.88 38.7383 172.735C39.6849 170.296 40.7329 167.374 41.8824 163.967C42.9519 160.563 44.0567 157.038 45.1969 153.391C46.4139 149.662 47.5925 145.973 48.7327 142.327C49.8729 138.68 50.8686 135.439 51.7199 132.604C52.648 129.686 53.4394 127.374 54.0941 125.667C54.7457 123.881 55.1514 122.985 55.3113 122.978C58.7518 122.926 60.5829 123.696 60.8045 125.288C61.023 126.801 60.4268 128.986 59.0159 131.842C57.6819 134.616 55.9299 137.966 53.7597 141.892C51.6664 145.736 49.9898 150.004 48.7299 154.696C48.7789 153.893 49.1754 152.757 49.9193 151.288C50.7431 149.815 51.7206 148.176 52.8518 146.371C54.0629 144.563 55.3925 142.71 56.8404 140.813C58.3651 138.832 59.8945 136.972 61.4285 135.232C63.811 132.658 65.8246 130.899 67.4694 129.955C69.1942 129.007 70.6223 128.672 71.7538 128.949C72.8822 129.145 73.7494 129.832 74.3553 131.01C75.0411 132.184 75.4979 133.648 75.7256 135.4C76.0303 137.07 76.1812 138.905 76.1784 140.907C76.1725 142.829 76.0836 144.673 75.9117 146.441C77.7963 145.488 80.3496 144.228 83.5716 142.663C86.7906 141.018 90.1402 139.647 93.6205 138.552ZM64.5497 160.09C64.9401 159.834 65.2829 159.381 65.578 158.729C65.873 158.077 66.3141 157.059 66.9012 155.676C65.7391 156.681 64.8937 157.595 64.365 158.416C63.8332 159.157 63.8947 159.715 64.5497 160.09ZM101.742 160.455C103.937 159.25 106.237 157.64 108.641 155.626C111.045 153.611 113.326 151.522 115.484 149.357C117.639 147.112 119.557 144.957 121.239 142.89C123 140.821 124.296 139.129 125.126 137.816C125.427 137.324 125.736 137.032 126.053 136.94C126.449 136.845 126.772 136.912 127.021 137.143C127.347 137.29 127.556 137.522 127.649 137.839C127.821 138.153 127.833 138.473 127.686 138.798C126.392 140.53 124.908 142.548 123.236 144.855C121.644 147.158 119.891 149.467 117.979 151.783C116.064 154.018 114.026 156.178 111.865 158.263C109.78 160.265 107.642 161.909 105.45 163.194C103.335 164.397 101.28 165.077 99.2843 165.234C97.2889 165.391 95.5147 165.059 93.9619 164.238C92.4091 163.418 91.1191 162.146 90.0919 160.425C89.0648 158.703 88.4649 156.645 88.2924 154.25C88.0338 151.698 88.1733 149.09 88.711 146.428C89.2487 143.765 90.1154 141.33 91.3111 139.122C92.5837 136.831 94.1899 134.888 96.1298 133.292C98.0697 131.696 100.312 130.688 102.858 130.27C104.531 130.045 105.982 130.309 107.212 131.062C108.442 131.816 109.023 133.394 108.956 135.799C108.907 136.601 108.552 137.776 107.891 139.322C107.31 140.866 106.368 142.383 105.065 143.875C103.841 145.363 102.292 146.704 100.416 147.897C98.5379 149.01 96.2781 149.578 93.637 149.6C93.4713 151.528 93.4223 153.371 93.4902 155.13C93.635 156.805 94.0103 158.232 94.6161 159.409C95.2189 160.507 96.0861 161.194 97.2176 161.471C98.429 161.744 99.9371 161.406 101.742 160.455ZM102.351 132.691C101.558 132.882 100.739 133.434 99.8933 134.347C99.1279 135.257 98.3717 136.407 97.6247 137.797C96.8747 139.107 96.1708 140.575 95.513 142.202C94.9322 143.746 94.5111 145.283 94.25 146.814C95.7689 146.756 97.3046 146.096 98.8571 144.835C100.49 143.571 101.796 142.16 102.777 140.601C103.834 138.959 104.413 137.375 104.515 135.85C104.616 134.325 103.895 133.272 102.351 132.691ZM143.901 137.092C143.707 134.137 143.118 132.358 142.134 131.756C141.147 131.073 139.91 131.161 138.422 132.019C137.013 132.874 135.467 134.295 133.783 136.281C132.178 138.265 130.661 140.445 129.231 142.822C127.651 145.445 126.505 147.891 125.792 150.16C125.156 152.346 124.91 154.277 125.055 155.953C125.196 157.548 125.607 158.854 126.287 159.868C127.046 160.88 128.032 161.522 129.243 161.795C130.212 161.998 131.957 161.571 134.478 160.513C136.999 159.455 139.74 157.868 142.7 155.752C145.738 153.553 148.797 150.873 151.877 147.712C154.957 144.551 157.583 141.007 159.753 137.08C160.429 135.933 160.965 135.312 161.362 135.217C161.839 135.118 162.126 135.307 162.224 135.784C162.403 136.257 162.426 136.857 162.294 137.583C162.162 138.308 161.865 138.92 161.404 139.418C158.302 144.101 154.982 148.313 151.444 152.052C147.906 155.791 144.461 158.846 141.11 161.217C137.842 163.665 134.826 165.383 132.062 166.37C129.301 167.437 127.147 167.641 125.601 166.98C123.728 166.171 122.243 165.028 121.145 163.549C120.127 162.067 119.501 160.37 119.267 158.458C119.03 156.465 119.184 154.218 119.727 151.715C120.348 149.129 121.212 146.614 122.318 144.17C123.502 141.642 124.929 139.225 126.602 136.919C128.274 134.613 130.08 132.662 132.02 131.066C133.96 129.469 135.998 128.35 138.135 127.707C140.352 127.061 142.515 127.098 144.624 127.817C145.353 128.029 145.849 128.45 146.114 129.08C146.378 129.711 146.526 130.425 146.557 131.225C146.588 132.024 146.499 132.828 146.29 133.637C146.161 134.443 145.987 135.13 145.769 135.699C145.314 136.357 144.691 136.821 143.901 137.092ZM179.526 107.736C179.231 108.388 178.747 109.327 178.073 110.554C177.4 111.781 176.649 113.051 175.819 114.364C175.066 115.594 174.308 116.704 173.545 117.694C172.86 118.601 172.317 119.062 171.918 119.078C171.103 118.709 170.546 117.769 170.248 116.26C169.946 114.67 170.319 112.935 171.368 111.053C171.589 110.564 171.922 109.871 172.368 108.973C172.814 108.075 173.386 107.332 174.083 106.745C174.778 106.078 175.567 105.767 176.449 105.813C177.409 105.776 178.434 106.417 179.526 107.736ZM162.792 131.559C163.582 131.288 164.136 131.107 164.452 131.014C164.769 130.922 165.247 130.864 165.887 130.839C167.566 130.774 168.387 131.303 168.35 132.425C168.31 133.467 167.791 134.528 166.791 135.608C165.946 136.521 165.076 137.835 164.182 139.551C163.287 141.267 162.514 143.018 161.863 144.805C161.208 146.511 160.748 148.09 160.484 149.541C160.297 150.91 160.449 151.744 160.941 152.046C163.453 150.748 166.148 149.002 169.025 146.81C171.903 144.617 174.585 142.552 177.072 140.615C179.556 138.597 181.654 136.955 183.367 135.688C185.079 134.421 185.985 134.026 186.083 134.503C186.191 135.219 185.787 136.155 184.871 137.311C184.034 138.465 182.883 139.75 181.417 141.168C180.027 142.502 178.401 143.926 176.538 145.439C174.675 146.952 172.81 148.425 170.944 149.858C169.155 151.208 167.443 152.475 165.807 153.659C164.168 154.763 162.84 155.615 161.823 156.215C160.805 156.814 159.615 157.1 158.253 157.073C156.891 157.045 155.939 156.242 155.398 154.661C154.853 153.001 155.033 150.392 155.936 146.835C156.917 143.194 159.202 138.102 162.792 131.559ZM203.904 138.018C203.323 139.561 202.83 141.302 202.424 143.239C202.099 145.173 201.927 146.941 201.908 148.543C201.89 150.145 202.101 151.457 202.541 152.481C202.978 153.425 203.749 153.715 204.856 153.352C206.756 152.799 208.638 151.765 210.501 150.252C212.441 148.656 214.216 146.947 215.827 145.123C217.515 143.217 219.002 141.318 220.29 139.427C221.658 137.533 222.72 136.01 223.477 134.86C223.929 134.122 224.39 133.624 224.86 133.366C225.327 133.028 225.724 132.932 226.05 133.08C226.373 133.147 226.543 133.421 226.562 133.901C226.58 134.38 226.365 135.029 225.917 135.847C224.109 138.799 222.219 141.674 220.245 144.472C218.348 147.187 216.441 149.623 214.523 151.778C212.601 153.854 210.706 155.568 208.837 156.922C207.044 158.192 205.349 158.858 203.75 158.919C201.192 159.018 199.31 157.97 198.105 155.775C196.899 153.58 196.545 150.631 197.043 146.929C195.072 149.807 193.165 152.243 191.32 154.235C189.476 156.228 187.645 157.54 185.828 158.17C184.641 158.536 183.437 158.463 182.217 157.949C180.993 157.356 179.99 156.274 179.209 154.703C178.406 152.572 178.341 149.853 179.014 146.544C179.764 143.153 181 139.903 182.721 136.794C184.439 133.605 186.494 130.844 188.886 128.51C191.278 126.176 193.753 124.96 196.311 124.861C198.469 124.778 200.163 125.112 201.393 125.866C202.623 126.619 203.503 127.626 204.032 128.886C204.641 130.144 204.898 131.615 204.803 133.3C204.704 134.905 204.405 136.477 203.904 138.018ZM201.275 135.237C201.25 134.598 201.099 133.803 200.822 132.853C200.622 131.82 200.306 130.871 199.872 130.007C199.438 129.143 198.854 128.526 198.119 128.154C197.464 127.779 196.628 127.891 195.61 128.491C193.882 129.358 192.149 131.106 190.409 133.735C188.666 136.284 187.13 139.026 185.802 141.959C184.472 144.812 183.494 147.492 182.87 149.998C182.247 152.504 182.19 154.147 182.7 154.928C182.959 155.399 183.518 155.377 184.379 154.864C185.237 154.27 186.245 153.43 187.404 152.345C188.64 151.176 189.95 149.845 191.333 148.35C192.793 146.773 194.134 145.2 195.354 143.632C196.651 141.981 197.832 140.414 198.895 138.932C199.959 137.45 200.752 136.218 201.275 135.237ZM250.417 95.512C250.104 97.7657 249.257 100.721 247.877 104.377C246.494 107.953 244.639 111.747 242.312 115.76C240.062 119.689 237.411 123.595 234.358 127.475C231.382 131.273 228.144 134.48 224.642 137.097C223.281 143.314 222.485 148.629 222.255 153.041C222.105 157.45 222.287 161.126 222.801 164.068C223.315 167.011 224.082 169.263 225.103 170.824C226.207 172.463 227.373 173.619 228.6 174.292C229.743 174.889 230.331 175.586 230.362 176.386C230.393 177.185 229.559 177.377 227.862 176.963C225.685 176.566 223.796 175.318 222.193 173.219C220.671 171.116 219.487 168.439 218.641 165.19C217.798 162.02 217.341 158.475 217.27 154.555C217.275 150.551 217.759 146.49 218.721 142.369C219.541 138.735 220.661 134.569 222.081 129.871C223.501 125.172 225.162 120.505 227.065 115.868C229.044 111.148 231.274 106.699 233.755 102.52C236.236 98.3411 238.947 94.954 241.889 92.3586C243.128 91.27 244.339 90.5027 245.523 90.0567C246.707 89.6107 247.703 89.4922 248.511 89.7011C249.4 89.907 250.024 90.5234 250.384 91.5503C250.741 92.4972 250.752 93.8178 250.417 95.512ZM227.191 128.472C226.973 129.041 226.716 129.652 226.421 130.303C226.206 130.952 225.992 131.641 225.78 132.37C227.791 130.531 229.895 128.008 232.093 124.801C234.288 121.513 236.32 118.153 238.189 114.718C240.055 111.203 241.648 107.899 242.97 104.806C244.368 101.63 245.277 99.233 245.695 97.6157C245.98 96.724 245.999 96.1629 245.75 95.9323C245.577 95.6187 245.184 95.794 244.569 96.4582C242.715 98.2111 240.96 100.44 239.303 103.146C237.643 105.772 236.071 108.595 234.586 111.615C233.099 114.554 231.732 117.529 230.488 120.539C229.24 123.47 228.141 126.114 227.191 128.472ZM263.604 104.49C263.309 105.142 262.825 106.081 262.151 107.308C261.478 108.535 260.727 109.805 259.897 111.118C259.144 112.348 258.386 113.458 257.623 114.448C256.938 115.355 256.395 115.816 255.996 115.832C255.181 115.463 254.624 114.524 254.326 113.014C254.024 111.425 254.397 109.689 255.446 107.807C255.667 107.318 256 106.625 256.446 105.727C256.892 104.829 257.464 104.087 258.161 103.499C258.856 102.832 259.645 102.521 260.527 102.567C261.487 102.53 262.512 103.171 263.604 104.49ZM246.87 128.313C247.66 128.043 248.214 127.861 248.53 127.769C248.847 127.676 249.325 127.618 249.965 127.593C251.644 127.528 252.465 128.057 252.428 129.179C252.388 130.222 251.869 131.283 250.869 132.362C250.024 133.275 249.154 134.59 248.26 136.306C247.365 138.021 246.592 139.772 245.941 141.559C245.286 143.265 244.826 144.844 244.562 146.296C244.375 147.664 244.527 148.499 245.019 148.8C247.531 147.502 250.226 145.757 253.103 143.564C255.981 141.371 258.663 139.306 261.15 137.369C263.634 135.352 265.732 133.71 267.445 132.443C269.157 131.176 270.063 130.78 270.161 131.257C270.269 131.973 269.865 132.91 268.949 134.066C268.112 135.219 266.961 136.504 265.495 137.922C264.105 139.257 262.479 140.68 260.616 142.193C258.753 143.706 256.888 145.179 255.022 146.612C253.233 147.962 251.521 149.229 249.885 150.413C248.246 151.517 246.918 152.369 245.901 152.969C244.883 153.569 243.693 153.855 242.331 153.827C240.969 153.8 240.017 152.996 239.476 151.416C238.931 149.755 239.111 147.147 240.014 143.589C240.995 139.948 243.28 134.857 246.87 128.313ZM276.298 152.516C276.104 153.724 275.712 154.98 275.122 156.284C274.612 157.585 273.979 158.81 273.223 159.96C272.469 161.19 271.71 162.26 270.945 163.17C270.182 164.161 269.451 164.909 268.75 165.417C267.584 166.342 266.484 166.865 265.448 166.985C264.492 167.102 263.721 166.852 263.137 166.234C262.556 165.696 262.244 164.867 262.2 163.748C262.157 162.629 262.544 161.253 263.362 159.62C264.767 156.604 267.278 153.225 270.897 149.482C268.716 146.924 267.505 144.569 267.261 142.417C267.015 140.185 266.901 138.268 266.919 136.666C266.922 134.664 267.372 132.846 268.27 131.21C269.244 129.491 270.349 128.047 271.585 126.879C272.818 125.63 274.022 124.663 275.196 123.977C276.447 123.208 277.391 122.772 278.028 122.667C278.747 122.639 279.157 122.904 279.259 123.46C279.437 123.934 279.33 124.258 278.936 124.433C277.295 125.457 275.948 126.87 274.897 128.672C273.846 130.474 273.12 132.424 272.721 134.521C272.318 136.538 272.239 138.622 272.482 140.775C272.722 142.847 273.271 144.627 274.129 146.115C277.145 143.357 280.683 140.658 284.745 138.019C288.806 135.381 293.358 133.003 298.4 130.887C298.793 130.712 299.038 130.823 299.133 131.219C299.228 131.616 299.199 131.897 299.046 132.063C298.661 132.478 297.845 133.11 296.597 133.959C295.346 134.728 293.861 135.666 292.142 136.773C290.504 137.877 288.75 139.106 286.88 140.459C285.088 141.729 283.419 143.074 281.872 144.495C280.323 145.836 279.015 147.207 277.948 148.609C276.881 150.012 276.331 151.314 276.298 152.516ZM283.496 114.65C281.873 114.072 280.803 113.313 280.286 112.372C279.686 111.355 279.72 110.153 280.387 108.766C281.214 107.373 282.568 106.16 284.45 105.126C286.251 104.096 288.339 103.215 290.712 102.483C293.086 101.751 295.624 101.132 298.327 100.628C301.109 100.12 303.815 99.6953 306.443 99.3536L311.294 88.1182C312.05 86.9682 312.789 86.4192 313.512 86.4714C314.234 86.5236 314.809 86.9017 315.237 87.6057C315.664 88.3097 315.94 89.2198 316.063 90.3359C316.266 91.4489 316.184 92.4527 315.819 93.3475C315.674 93.7534 315.373 94.2454 314.915 94.8235C314.457 95.4016 313.824 96.6269 313.015 98.4995C315.49 98.3239 317.969 98.2282 320.45 98.2125C322.928 98.1168 325.249 98.1073 327.414 98.1838C329.578 98.2604 331.506 98.4262 333.197 98.6811C334.885 98.8561 336.217 99.125 337.191 99.4876C337.76 99.7059 338.052 100.015 338.068 100.415C338.16 100.731 338.051 101.016 337.741 101.268C337.51 101.517 337.156 101.691 336.68 101.789C336.203 101.888 335.721 101.826 335.232 101.605C332.009 101.089 328.24 100.914 323.923 101.081C319.683 101.164 315.492 101.486 311.351 102.046C310.023 104.98 308.519 108.52 306.837 112.668C305.236 116.813 303.641 121.118 302.052 125.583C300.543 130.044 299.111 134.423 297.755 138.718C296.48 143.01 295.504 146.771 294.828 149.999C294.232 153.225 294.008 155.715 294.156 157.471C294.384 159.223 295.245 159.751 296.739 159.052C297.449 158.785 298.495 157.864 299.875 156.289C301.338 154.792 302.911 153.01 304.592 150.943C306.35 148.794 308.144 146.523 309.973 144.131C311.802 141.738 313.518 139.511 315.119 137.447C316.718 135.304 318.049 133.491 319.113 132.009C320.256 130.524 320.943 129.657 321.174 129.408C321.324 129.162 321.676 128.948 322.23 128.767C322.863 128.582 323.184 128.61 323.194 128.849C322.902 129.581 322.233 130.928 321.188 132.89C320.14 134.772 318.864 136.983 317.361 139.522C315.855 141.982 314.153 144.57 312.257 147.285C310.437 149.917 308.569 152.351 306.654 154.587C304.822 156.899 303.013 158.77 301.227 160.2C299.52 161.627 298.026 162.325 296.744 162.295C294.343 162.307 292.584 161.334 291.468 159.376C290.434 157.494 289.827 155.236 289.645 152.601C289.614 149.72 290.082 146.3 291.05 142.339C292.015 138.299 293.212 134.05 294.641 129.591C296.147 125.05 297.773 120.504 299.519 115.953C301.341 111.319 303.095 106.968 304.779 102.9C302.236 103.399 299.815 103.933 297.515 104.502C295.216 105.071 293.159 105.711 291.345 106.421C289.528 107.052 288.032 107.71 286.858 108.396C285.603 109.085 284.75 109.798 284.298 110.536C283.994 110.948 283.969 111.349 284.225 111.74C284.48 112.13 284.775 112.519 285.11 112.907C285.855 113.518 286.313 113.981 286.485 114.295C286.577 114.611 286.505 114.814 286.268 114.903C286.032 114.993 285.672 115.007 285.189 114.945C284.626 114.887 284.062 114.788 283.496 114.65Z" fill="white"/>
</svg>
