<svg width="173" height="83" viewBox="0 0 173 83" fill="none" xmlns="http://www.w3.org/2000/svg">
<path d="M4.78032 22.3741C3.65554 22.6176 2.69088 22.6882 1.88633 22.5859C1.0126 22.4194 0.502683 22.1723 0.356591 21.8443C0.207927 21.4498 0.525582 21.0372 1.30956 20.6066C2.02691 20.1787 3.44632 19.7903 5.56778 19.4415C10.2744 18.6594 14.0076 18.582 16.7672 19.2093C19.5934 19.8341 21.6113 21.1239 22.8209 23.0787C24.0972 25.0309 24.6984 27.643 24.6245 30.915C24.5481 34.1203 24.0298 37.9765 23.0696 42.4835C22.1069 46.924 20.8009 51.9781 19.1516 57.646C17.5023 63.3138 15.7417 69.553 13.8697 76.3636C13.8774 76.5635 13.8211 76.8325 13.7007 77.1708C13.6469 77.5064 13.5919 77.8088 13.5356 78.0778C13.5459 78.3443 13.6189 78.5082 13.7547 78.5697C13.8931 78.6978 14.221 78.5517 14.7385 78.1314C15.8427 77.3549 17.5489 75.7546 19.8571 73.3304C22.232 70.9037 24.8834 67.8658 27.8115 64.2168C30.8088 60.6319 33.9226 56.6087 37.1529 52.1475C40.4473 47.617 43.5674 42.8932 46.5132 37.9759C49.5257 33.056 52.2358 28.0811 54.6436 23.0511C57.0487 17.9546 58.8608 13.0477 60.0798 8.33048C60.0489 7.53108 60.2256 6.92381 60.6099 6.50868C60.9916 6.02693 61.4182 5.84367 61.8896 5.9589C62.4251 6.00495 62.8749 6.42124 63.2388 7.20779C63.6694 7.99176 63.8181 9.25363 63.6852 10.9934C61.6285 16.4768 59.2682 21.8719 56.6042 27.1786C54.0043 32.4161 51.2622 37.4256 48.3778 42.2071C45.5575 46.9194 42.6936 51.3665 39.7861 55.5484C36.876 59.6638 34.085 63.4075 31.4131 66.7798C28.7412 70.152 26.2511 73.0502 23.9429 75.4744C21.7013 77.896 19.8055 79.7705 18.2556 81.098C17.3538 81.9334 16.4699 82.3678 15.6039 82.4012C14.8071 82.4987 14.1011 82.3592 13.4862 81.9826C12.8712 81.6061 12.3484 81.0258 11.9178 80.2418C11.5539 79.4553 11.3539 78.5957 11.3179 77.663C11.2562 76.0642 11.475 73.9542 11.9742 71.333C12.5401 68.7092 13.2289 65.8138 14.0407 62.6468C14.8525 59.4798 15.6591 56.1796 16.4606 52.7461C17.3287 49.3101 18.0008 45.9817 18.4769 42.7609C19.0171 39.471 19.2665 36.4257 19.2251 33.6253C19.2477 30.7556 18.7554 28.3728 17.7482 26.4769C16.8051 24.5118 15.2842 23.1361 13.1856 22.3498C11.1537 21.561 8.35192 21.569 4.78032 22.3741Z" fill="#1D1D1A"/>
<path d="M77.8145 17.1529C77.5686 17.6962 77.1652 18.479 76.6042 19.5014C76.0432 20.5238 75.4169 21.5821 74.7253 22.6762C74.0977 23.7012 73.4662 24.6262 72.8309 25.4514C72.2597 26.2073 71.8075 26.5917 71.4744 26.6045C70.7954 26.2972 70.3315 25.5145 70.0828 24.2565C69.8315 22.9319 70.1426 21.4854 71.0161 19.9172C71.2005 19.5098 71.4784 18.932 71.8498 18.1838C72.2213 17.4356 72.6977 16.8167 73.2793 16.3273C73.8583 15.7712 74.5154 15.5123 75.2508 15.5506C76.0502 15.5198 76.9048 16.0539 77.8145 17.1529ZM63.8699 37.0056C64.5284 36.7801 64.9896 36.6288 65.2535 36.5519C65.5174 36.475 65.9158 36.4263 66.4487 36.4057C67.8477 36.3517 68.5319 36.7923 68.5012 37.7275C68.4681 38.5961 68.0352 39.4801 67.2026 40.3796C66.4981 41.1407 65.7731 42.2361 65.0277 43.6659C64.2823 45.0957 63.6381 46.555 63.0952 48.0437C62.5496 49.4658 62.1667 50.7816 61.9466 51.991C61.7904 53.1312 61.9174 53.8268 62.3274 54.0778C64.4205 52.9963 66.6661 51.5419 69.0641 49.7147C71.462 47.8875 73.6973 46.1667 75.7699 44.5522C77.8399 42.8711 79.5884 41.5026 81.0154 40.4468C82.4425 39.391 83.197 39.0616 83.279 39.4588C83.3688 40.0557 83.032 40.836 82.2686 41.7995C81.5718 42.7604 80.6124 43.8315 79.3904 45.0129C78.2324 46.1251 76.8772 47.3115 75.3247 48.5724C73.7721 49.8332 72.2183 51.0607 70.6632 52.2549C69.1722 53.3799 67.7452 54.4358 66.3822 55.4224C65.0167 56.3424 63.9099 57.0523 63.0619 57.5521C62.2139 58.0518 61.2224 58.2903 60.0873 58.2674C58.9522 58.2445 58.1591 57.5746 57.708 56.2576C57.2543 54.8741 57.4039 52.7001 58.1567 49.7355C58.9737 46.7017 60.8781 42.4584 63.8699 37.0056Z" fill="#1D1D1A"/>
<path d="M88.9106 49.8493C87.2531 51.848 85.8813 53.4688 84.7951 54.7116C83.7089 55.9545 82.7802 56.9577 82.0091 57.7213C81.302 58.4158 80.6885 58.9399 80.1684 59.2935C79.7123 59.578 79.2858 59.7612 78.8886 59.8433C78.0303 60.0766 77.2283 60.0408 76.4827 59.736C75.8037 59.4286 75.0772 58.7562 74.3033 57.7186C74.0034 56.8628 74.0211 55.5945 74.3565 53.9137C74.6228 52.1688 75.1183 50.315 75.8431 48.3522C76.5679 46.3895 77.4606 44.4536 78.5211 42.5446C79.6482 40.633 80.8535 39.0187 82.1369 37.7015C83.4204 36.3843 84.7552 35.5322 86.1413 35.1451C87.5274 34.758 88.9072 35.0717 90.2807 36.0862C90.9567 32.8577 91.7684 29.6907 92.716 26.5851C93.661 23.413 94.7777 20.3677 96.0661 17.4491C97.3519 14.464 98.8786 11.6697 100.646 9.06621C102.411 6.39614 104.487 4.01427 106.875 1.92061C107.521 1.36196 108.305 0.931394 109.227 0.628923C110.149 0.326455 111.078 0.190528 112.013 0.221142C112.946 0.185139 113.853 0.350273 114.735 0.716543C115.68 1.01362 116.5 1.5157 117.194 2.22278C117.946 4.39542 117.459 7.34972 115.735 11.0857C114.378 13.9402 112.724 16.9061 110.775 19.9836C108.889 22.9919 106.904 26.0041 104.819 29.0201C102.731 31.9695 100.608 34.8536 98.448 37.6723C96.2884 40.491 94.2544 43.1048 92.3459 45.5135C92.0413 47.9938 91.9674 50.3984 92.124 52.7274C92.2781 54.9899 92.7472 56.7731 93.5314 58.0771C94.3822 59.3786 95.6404 59.9972 97.3058 59.9329C98.9712 59.8686 101.162 58.7166 103.877 56.4769C106.275 54.6497 108.845 52.082 111.586 48.7738C114.325 45.3989 116.882 41.6642 119.259 37.5694C119.38 37.2312 119.671 36.9865 120.132 36.8352C120.593 36.684 120.894 36.7057 121.035 36.9004C121.176 37.0951 120.748 38.1124 119.752 39.9522C118.822 41.7894 117.539 43.9739 115.902 46.5056C114.329 48.9681 112.493 51.5408 110.395 54.2238C108.295 56.8401 106.211 59.0221 104.143 60.7698C100.849 63.5656 98.0252 64.7421 95.673 64.2992C93.3234 63.9228 91.6283 62.3537 90.5876 59.5918C90.2031 58.2723 89.8468 56.8183 89.5186 55.2298C89.1904 53.6413 88.9877 51.8478 88.9106 49.8493ZM112.625 3.09969C109.814 4.60923 107.364 6.80539 105.274 9.68817C103.183 12.571 101.372 15.7765 99.8405 19.3049C98.3062 22.7667 97.0102 26.3527 95.9526 30.0629C94.9615 33.7705 94.128 37.2386 93.452 40.4671C94.5843 38.6888 95.9381 36.6016 97.5135 34.2058C99.089 31.8099 100.662 29.3474 102.232 26.8182C103.866 24.2199 105.401 21.6255 106.835 19.0349C108.336 16.4417 109.612 14.0574 110.662 11.8819C111.712 9.70648 112.441 7.84365 112.848 6.29346C113.255 4.74326 113.181 3.67868 112.625 3.09969ZM89.7814 38.7074C88.6335 38.3514 87.4767 38.6295 86.311 39.5419C85.1428 40.3876 84.0194 41.5317 82.9409 42.9744C81.9291 44.4145 81.0236 46.0173 80.2244 47.7828C79.4227 49.4816 78.8477 51.005 78.4994 52.3527C78.1511 53.7005 78.0565 54.7049 78.2154 55.3659C78.3744 56.0269 78.9086 56.0397 79.8181 55.4041C81.7011 54.0638 83.3459 52.5993 84.7523 51.0105C86.1587 49.4218 87.5613 47.7331 88.96 45.9444C89.0495 44.8068 89.1365 43.6026 89.2208 42.3317C89.3718 41.0583 89.5587 39.8501 89.7814 38.7074Z" fill="#1D1D1A"/>
<path d="M125.216 56.7539C127.045 55.7493 128.961 54.4077 130.965 52.7292C132.968 51.0507 134.869 49.3094 136.667 47.5053C138.463 45.6347 140.062 43.8383 141.463 42.1163C142.931 40.3917 144.011 38.9824 144.702 37.8882C144.953 37.4782 145.211 37.2348 145.475 37.1579C145.805 37.0784 146.074 37.1347 146.282 37.3269C146.554 37.4498 146.728 37.6432 146.805 37.9071C146.948 38.1685 146.959 38.4349 146.836 38.7065C145.757 40.1492 144.521 41.8315 143.128 43.7533C141.801 45.6726 140.34 47.597 138.747 49.5266C137.151 51.3896 135.452 53.1898 133.651 54.9272C131.915 56.5954 130.133 57.9652 128.306 59.0364C126.543 60.0385 124.831 60.605 123.168 60.7359C121.505 60.8668 120.026 60.5903 118.732 59.9064C117.438 59.2225 116.363 58.1631 115.507 56.7284C114.651 55.2937 114.152 53.5784 114.008 51.5824C113.792 49.4558 113.909 47.2831 114.357 45.0641C114.805 42.8452 115.527 40.8158 116.523 38.976C117.584 37.067 118.922 35.4475 120.539 34.1175C122.156 32.7875 124.025 31.9481 126.146 31.5993C127.54 31.4121 128.749 31.6323 129.774 32.2599C130.799 32.8875 131.284 34.2031 131.228 36.2068C131.187 36.8755 130.891 37.8543 130.34 39.1432C129.856 40.4295 129.071 41.694 127.985 42.9369C126.965 44.1771 125.674 45.2944 124.111 46.2888C122.546 47.2165 120.663 47.6895 118.462 47.7077C118.324 49.3143 118.283 50.8503 118.339 52.3159C118.46 53.7123 118.773 54.9011 119.278 55.8824C119.78 56.797 120.503 57.3695 121.445 57.6C122.455 57.8279 123.712 57.5459 125.216 56.7539ZM125.724 33.6171C125.063 33.7761 124.38 34.2361 123.675 34.9972C123.037 35.7557 122.407 36.714 121.785 37.8722C121.16 38.9638 120.573 40.1874 120.025 41.5429C119.541 42.8292 119.19 44.1103 118.973 45.3863C120.238 45.3375 121.518 44.7877 122.812 43.737C124.172 42.6837 125.261 41.5075 126.078 40.2084C126.959 38.84 127.442 37.5204 127.526 36.2496C127.611 34.9787 127.01 34.1012 125.724 33.6171Z" fill="#1D1D1A"/>
<path d="M155.711 46.7702C155.071 49.1967 153.894 51.5438 152.18 53.8116C150.53 56.0102 148.76 57.6798 146.869 58.8202C144.981 60.0273 143.198 60.4964 141.52 60.2276C139.841 59.9588 138.686 58.5357 138.052 55.9582C137.581 54.1083 137.532 51.9753 137.905 49.5591C138.213 47.1455 138.857 44.8189 139.838 42.5794C140.883 40.2707 142.206 38.2515 143.807 36.5217C145.408 34.792 147.235 33.7208 149.287 33.308C150.345 33.067 151.174 32.9349 151.774 32.9118C152.373 32.8886 152.72 33.2421 152.815 33.9724C152.89 34.1696 153.165 34.3925 153.642 34.641C154.118 34.8894 154.632 35.2365 155.183 35.6823C155.731 36.0614 156.218 36.5764 156.644 37.2271C157.069 37.8778 157.236 38.7387 157.144 39.8097C157.082 39.9455 157.025 40.1813 156.971 40.5169C156.917 40.8526 156.897 41.187 156.909 41.52C156.922 41.8531 156.967 42.1516 157.044 42.4155C157.121 42.6794 157.259 42.8075 157.459 42.7998C158.73 42.8842 160.58 42.4125 163.009 41.3847C165.502 40.2877 168.679 38.764 172.54 36.8136C172.891 37.2671 172.974 37.6975 172.79 38.1049C172.672 38.5098 172.451 38.8519 172.129 39.1312C170.776 40.3843 169.284 41.476 167.652 42.4063C166.086 43.3341 164.549 44.1273 163.04 44.786C161.531 45.4447 160.115 45.933 158.793 46.2509C157.538 46.5662 156.51 46.7393 155.711 46.7702ZM150.719 47.063C150.106 46.753 149.717 46.1676 149.55 45.3067C149.383 44.4459 149.313 43.4812 149.338 42.4128C149.43 41.3417 149.557 40.3028 149.718 39.2958C149.877 38.2222 150.01 37.3497 150.118 36.6784C149.206 37.2474 148.209 38.2199 147.128 39.5959C146.113 40.9694 145.172 42.5069 144.304 44.2083C143.502 45.9072 142.836 47.6675 142.306 49.4893C141.842 51.3085 141.671 52.9163 141.792 54.3127C141.861 56.1114 142.361 56.9594 143.291 56.8568C144.221 56.7542 145.2 56.1827 146.227 55.1423C147.321 54.0993 148.305 52.7937 149.178 51.2255C150.118 49.6547 150.632 48.2672 150.719 47.063Z" fill="#1D1D1A"/>
</svg>
